<svg width="219" height="48" viewBox="0 0 219 48" fill="none" xmlns="http://www.w3.org/2000/svg">
<g clip-path="url(#clip0_215_12269)">
<path d="M13.3751 39.6162C13.0889 39.9267 12.7587 40.1935 12.3952 40.4083C12.0386 40.6208 11.6614 40.7966 11.2694 40.9329C10.4956 41.2033 9.67144 41.2986 8.85634 41.212C8.03518 41.1142 7.24753 40.8287 6.55438 40.3777C5.86122 39.9267 5.28114 39.3222 4.85905 38.6111C4.42051 37.8714 4.12464 36.9723 4.111 36.1068C4.111 36.1435 4.111 35.8728 4.111 35.8728C4.111 35.8728 4.10471 36.1435 4.10471 36.1068C4.10051 36.4845 4.10051 36.8622 4.10471 37.2399C4.11415 38.0792 4.23585 38.8933 4.58208 39.6676C4.92052 40.4211 5.42647 41.0875 6.06139 41.6159C6.72018 42.161 7.49976 42.5406 8.33509 42.7231C9.17043 42.9056 10.0373 42.8857 10.8634 42.665C11.3322 42.5409 11.7842 42.3602 12.2095 42.1268C12.6476 41.893 13.044 41.5881 13.3824 41.2246C13.3916 41.1465 13.3916 41.0676 13.3824 40.9895C13.3824 40.8007 13.3824 40.6118 13.3824 40.423C13.3824 40.2341 13.3824 40.0453 13.3824 39.8565C13.3824 39.8166 13.3562 39.6466 13.3824 39.6214L13.3751 39.6162Z" fill="#0DAC5C"/>
<path d="M16.1772 0.179379C16.2527 1.24113 15.7879 2.29028 15.0955 3.06981C14.3307 3.93117 13.3119 4.47358 12.2502 4.87541C11.009 5.34228 9.70913 5.63814 8.48581 6.15538C7.40116 6.60452 6.38673 7.20731 5.47368 7.94524C3.75936 9.35216 2.60109 11.4305 2.60843 13.6841C2.60843 14.0356 2.64306 14.3871 2.67243 14.7333C2.7144 15.2379 2.74482 15.751 2.82666 16.2525C2.90833 16.7805 3.08386 17.2897 3.34494 17.7559C3.92113 18.7385 4.80657 19.5026 5.86292 19.9287C6.4076 20.1447 6.99752 20.2215 7.57934 20.1522C7.86715 20.1143 8.14911 20.0406 8.41867 19.9329C8.71453 19.8154 9.07439 19.6559 9.29786 19.4241C9.52133 19.1922 9.76264 19.0264 9.97247 18.8009C10.1984 18.5548 10.3965 18.2846 10.5631 17.9951C10.8761 17.439 11.1129 16.8434 11.2671 16.2241C11.2723 16.1378 11.267 16.0511 11.2514 15.9661C11.236 15.7562 11.2185 15.5495 11.1989 15.346C11.1811 15.1362 11.1633 14.9316 11.1423 14.7259C11.1217 14.6419 11.1122 14.5554 11.114 14.4689C10.8338 15.5254 10.3743 16.5788 9.54022 17.3174C9.4353 17.4107 9.30835 17.4894 9.21078 17.5891C9.11566 17.6929 9.00779 17.7842 8.88974 17.8608C8.65036 18.0132 8.39536 18.1394 8.1291 18.2375C7.65829 18.403 7.15681 18.4628 6.66028 18.4127C5.59433 18.3078 4.64695 17.6993 3.91359 16.9439C3.32652 16.3648 2.91827 15.6291 2.73748 14.8246C2.706 14.6903 2.68397 14.5549 2.66299 14.4185C2.56647 13.789 2.77525 16.2367 2.7679 15.5946C2.7679 15.5055 2.7679 15.4173 2.7679 15.3282C2.79938 13.1438 3.92198 11.1315 5.5723 9.75189C6.44189 9.03862 7.40615 8.44933 8.43755 8.00085C9.61156 7.47627 10.8622 7.17831 12.0708 6.7534C13.2563 6.33374 14.4094 5.78083 15.256 4.8261C15.6381 4.40464 15.9301 3.90954 16.1139 3.37117C16.2978 2.83281 16.3696 2.26255 16.3251 1.69541C16.2968 1.29463 16.2611 0.893855 16.2202 0.494126C16.2118 0.400751 16.2338 0.160495 16.1803 0.0912502C16.1499 0.0545297 16.1803 0.104889 16.1803 0.180428L16.1772 0.179379Z" fill="#0DAC5C"/>
<path d="M13.8934 17.0498C14.012 17.6583 14.1431 18.2627 14.2784 18.8638C12.8379 18.4788 11.4971 17.4695 11.1404 16.1507C11.067 15.8769 11.0796 15.56 11.0554 15.2789C11.0376 15.069 11.0198 14.8676 11.004 14.6609C11.0054 14.5753 11.0001 14.4897 10.9883 14.4049C11.1981 15.1676 11.7227 15.7908 12.3522 16.2546C12.821 16.5989 13.3411 16.8673 13.8934 17.0498Z" fill="#0DAC5C"/>
<path d="M18.4104 16.7991L18.3946 16.8778C18.3675 16.7744 18.3349 16.6725 18.297 16.5725L18.1732 16.6197L18.0505 16.6669C18.0441 16.6487 18.0412 16.6295 18.0421 16.6102C18.0306 16.6522 17.9697 16.8012 17.955 16.8327L18.0652 16.8862L17.9487 16.8453C17.8637 17.0845 17.7819 17.3216 17.72 17.501C17.6445 17.7224 17.57 17.9385 17.4965 18.1577C17.4965 18.1703 17.4839 18.1892 17.4756 18.2113C17.4283 18.2941 17.4031 18.3876 17.4021 18.483C16.8858 18.8398 16.2734 19.0315 15.6458 19.0327L15.4087 17.9993C15.3542 17.7664 15.3038 17.5314 15.2461 17.2953C15.6724 17.3116 16.0983 17.2541 16.5051 17.1254C16.855 17.0174 17.1767 16.8333 17.447 16.5862C17.7173 16.3392 17.9295 16.0353 18.0683 15.6964C18.2136 15.3259 18.299 14.9345 18.3212 14.5371C18.3212 14.5224 18.3212 14.5077 18.3212 14.493C18.2939 14.2717 18.2876 14.0451 18.2687 13.8258C18.2435 13.5436 18.2561 13.2309 18.2005 12.9529C18.36 13.7502 18.403 14.5738 18.4597 15.3827C18.5047 15.855 18.4881 16.3311 18.4104 16.7991Z" fill="#0DAC5C"/>
<path d="M18.4682 15.3827C18.4115 14.5738 18.3685 13.7502 18.209 12.9529C18.2646 13.2309 18.252 13.5436 18.2772 13.8258C18.2961 14.0451 18.3024 14.2717 18.3297 14.493C18.3297 14.5077 18.3297 14.5224 18.3297 14.5371C18.3075 14.9345 18.2221 15.3259 18.0768 15.6964C17.938 16.0353 17.7258 16.3392 17.4555 16.5862C17.1852 16.8333 16.8635 17.0174 16.5136 17.1254C16.1068 17.2541 15.6809 17.3116 15.2546 17.2953C15.3091 17.5314 15.3595 17.7664 15.4172 17.9993L15.6543 19.0327C16.2819 19.0315 16.8943 18.8398 17.4106 18.483C17.4116 18.3876 17.4368 18.2941 17.4841 18.2113C17.4924 18.1892 17.5019 18.1703 17.505 18.1577C17.5785 17.9385 17.653 17.7224 17.7285 17.501C17.7904 17.3216 17.8722 17.0813 17.9572 16.8453L18.0737 16.8862L17.9635 16.8327C17.9782 16.8012 18.0391 16.6522 18.0506 16.6102C18.0497 16.6295 18.0526 16.6487 18.059 16.6669L18.1817 16.6197L18.3055 16.5725C18.3434 16.6725 18.376 16.7744 18.4031 16.8778L18.4188 16.7991C18.4966 16.3311 18.5132 15.855 18.4682 15.3827ZM18.3632 14.7102C18.3821 14.8057 18.4 14.9022 18.4147 14.9987C18.423 15.0501 18.4293 15.1037 18.4367 15.153C18.4902 15.5401 18.4325 15.9923 18.3643 14.7102H18.3632ZM13.8917 17.0498C13.338 16.8677 12.8164 16.5993 12.3463 16.2546C11.7168 15.7909 11.1923 15.1677 10.9824 14.4049C10.9943 14.4897 10.9995 14.5753 10.9982 14.6609C11.0139 14.8707 11.0317 15.0732 11.0496 15.2789C11.0737 15.56 11.0611 15.8769 11.1345 16.1507C11.4913 17.4695 12.8321 18.4788 14.2726 18.8638C14.1425 18.2627 14.0113 17.6584 13.8928 17.0498H13.8917Z" fill="#0DAC5C"/>
<path d="M21.4232 1.58105C20.6143 2.59244 20.1778 3.73497 19.7645 4.94885C19.3878 6.05361 19.135 7.15208 19.1192 8.32714C19.0825 10.8724 19.9848 13.3127 20.9626 15.623C22.0307 18.1493 23.1428 20.6589 24.2349 23.1769C24.7595 24.3824 25.3817 25.5994 25.6282 26.8993C25.739 27.4486 25.7503 28.0132 25.6618 28.5664C25.6492 28.642 25.6335 28.7175 25.6156 28.7931L25.5852 28.9158C25.5076 29.1788 25.5646 29.0165 25.7562 28.429L25.9482 27.8687C25.923 27.9327 25.8958 27.9957 25.8653 28.0576C25.8349 28.1195 25.8076 28.1741 25.7762 28.2318C25.6442 28.4721 25.482 28.6946 25.2935 28.8938C24.493 29.7331 23.1679 30.1737 22.0412 29.8443C21.5453 29.7012 21.1135 29.3923 20.8178 28.9693C20.6807 28.7734 20.5856 28.5512 20.5388 28.3167C20.5174 28.2041 20.5097 28.0892 20.5157 27.9747C20.5157 27.9369 20.522 27.8992 20.5272 27.8614C20.6258 27.1878 19.8977 29.4037 20.1726 28.8822C20.2777 28.6443 20.3647 28.3988 20.4328 28.1478C20.5136 27.9139 20.5629 27.6327 20.6783 27.4134C20.4905 27.7712 20.3835 28.1793 20.2586 28.558C20.1621 28.8413 20.0331 29.1351 20.0152 29.4372C20.0064 29.8781 20.1693 30.3051 20.4695 30.628C21.1714 31.4275 22.315 31.5607 23.2917 31.2659C23.8062 31.1124 24.2771 30.8392 24.6658 30.4689C25.0546 30.0986 25.3502 29.6415 25.5286 29.1351C25.7971 28.407 26.1192 27.6463 26.2074 26.8678C26.2656 26.2805 26.2202 25.6874 26.0731 25.1158C25.751 23.777 25.0984 22.5138 24.5528 21.257L22.8658 17.3751C21.7736 14.8571 20.5262 12.3391 19.9355 9.64383C19.6343 8.35154 19.5601 7.01671 19.7162 5.699C19.7567 5.3896 19.8131 5.08249 19.8851 4.77889C19.925 4.60997 19.9722 4.44421 20.0205 4.27739L19.711 5.17127L19.7676 5.02544C19.8033 4.93626 19.8411 4.84813 19.8799 4.76C20.1552 4.14753 20.5078 3.57282 20.929 3.04988C20.9635 2.9833 20.9899 2.91286 21.0077 2.84004C21.0696 2.66798 21.1294 2.49487 21.1882 2.32281C21.2469 2.15075 21.3078 1.97659 21.3644 1.79823C21.3785 1.72359 21.4017 1.65099 21.4337 1.5821L21.4232 1.58105Z" fill="#0DAC5C"/>
<path d="M5.27207 26.1472C5.24689 26.2038 5.22171 26.2615 5.19758 26.3182C5.02551 26.7284 4.96571 27.2299 5.3581 25.9698C5.32872 26.0286 5.2962 26.0874 5.27207 26.1472Z" fill="#0DAC5C"/>
<path d="M16.2446 22.0868L16.2383 22.0669C16.2551 22.1592 16.2708 22.2536 16.2865 22.3407L16.2949 22.3355L16.2446 22.0868Z" fill="#0DAC5C"/>
<path d="M17.4316 27.7156C17.3174 26.9173 17.1619 26.1255 16.9658 25.3434C16.7811 24.544 16.5971 23.7445 16.4139 22.945C16.395 22.8622 16.3761 22.7782 16.3562 22.6943C16.3174 22.6723 16.2313 22.1802 16.1768 21.855C16.1768 21.8487 16.1768 21.8434 16.1768 21.8382C16.1671 21.8068 16.1591 21.7749 16.1527 21.7427V21.6997L16.159 21.7165C16.159 21.6944 16.1516 21.6745 16.1485 21.6567C16.1191 21.5591 16.0897 21.4615 16.0614 21.3629C16.0383 21.2874 16.0163 21.2118 15.9953 21.1352C15.9855 21.1039 15.9775 21.072 15.9712 21.0398L15.9795 21.0314L15.5515 19.1691L15.52 19.0369C15.4599 18.7732 15.3994 18.5099 15.3385 18.2469C15.2686 17.9294 15.1955 17.6108 15.1192 17.2911L15.0899 17.1579C14.8244 15.9912 14.5737 14.8204 14.3932 13.638C14.1455 12.1421 14.066 10.6233 14.1561 9.1098C14.2034 8.44287 14.2946 7.77977 14.4289 7.12479C14.4803 6.87299 14.5391 6.62434 14.6041 6.37569C14.6167 6.34527 14.6303 6.31484 14.644 6.28442C14.915 5.67203 15.2375 5.08378 15.6081 4.52603C15.6508 4.44029 15.6842 4.35025 15.7078 4.25745C15.7854 4.03922 15.8617 3.821 15.9365 3.60277C16.0114 3.38455 16.0859 3.16597 16.16 2.94705C16.1787 2.85292 16.2075 2.76111 16.246 2.67322C15.328 4.05811 14.8034 5.61086 14.2831 7.1762C13.8542 8.45514 13.5933 9.78434 13.5067 11.1305C13.3839 13.0913 13.6336 15.0323 14.0071 16.9522L14.0355 17.097C14.1551 17.7003 14.2862 18.3025 14.4215 18.9026L14.453 19.0422L14.6513 19.9088C14.7401 20.2963 14.829 20.6834 14.9178 21.0702C14.9286 21.1078 14.9374 21.146 14.944 21.1845C14.9619 21.258 14.9787 21.3314 14.9954 21.4059H14.9902C15.0049 21.4752 15.0185 21.5444 15.0322 21.6158H15.0437C15.0573 21.6661 15.0699 21.7207 15.0794 21.7679L15.115 21.9431C15.1696 22.2075 15.22 22.4677 15.2735 22.7373C15.285 22.8013 15.2976 22.8643 15.3102 22.9282L15.3417 22.9146L15.7099 24.5135C16.0593 26.0327 16.4716 27.5561 16.7244 29.091C16.8433 29.731 16.8845 30.3831 16.8472 31.033C16.8378 31.1578 16.8241 31.2827 16.8052 31.4065C16.4076 32.0591 15.818 32.5899 15.0552 32.7704C13.8456 33.06 12.6611 32.5532 11.7777 31.7034C11.8501 31.5492 11.9151 31.3887 11.976 31.2313C12.0809 31.0687 12.5236 29.7289 12.4512 29.7876C12.639 29.2106 12.7576 28.6336 12.6065 28.0272C12.4817 27.534 12.1701 26.9591 11.6623 26.7829C11.101 26.5888 10.6886 27.0326 10.483 27.5057C10.4473 27.5865 10.4148 27.6683 10.3781 27.7502C10.3708 27.5708 9.64368 29.6806 9.81889 29.3921C9.73989 29.6167 9.68777 29.8498 9.66362 30.0867C9.62871 30.6289 9.70916 31.1725 9.89968 31.6814C9.90702 31.7003 9.91332 31.7202 9.92171 31.7391C9.80399 31.7528 9.68561 31.7602 9.56709 31.7611C8.35951 31.7695 7.27993 31.1379 6.54762 30.201C5.84163 29.2661 5.44284 28.1353 5.40614 26.9644C5.38896 26.5595 5.4118 26.154 5.47433 25.7536C5.53623 25.6487 5.60128 25.5438 5.67157 25.4389C6.23477 24.6036 7.09698 24.0163 8.08044 23.798C9.57339 23.4749 11.1157 23.628 12.6296 23.5252C13.4846 23.4665 14.3649 23.3238 15.1633 22.9933C15.1098 22.7352 15.0584 22.475 15.0091 22.2159C14.9598 21.9567 14.9094 21.6997 14.8611 21.4405C14.3915 21.5497 13.9141 21.6227 13.4332 21.6588C11.8763 21.7847 10.2858 21.6126 8.7519 21.9378C8.23808 22.048 7.75133 22.2593 7.32009 22.5596C6.88885 22.8599 6.52175 23.2431 6.24022 23.6868C5.88875 24.2303 5.68626 24.8409 5.47538 25.4441C5.21204 26.2006 4.91828 26.9591 4.81441 27.7575C4.66149 28.8941 4.83696 30.0506 5.32011 31.0907C5.85098 32.2112 6.80152 33.189 8.03008 33.5038C8.47796 33.6238 8.94632 33.6466 9.40376 33.5708C9.8612 33.495 10.2971 33.3223 10.6823 33.0642C11.038 33.5091 11.4713 33.8859 11.9613 34.1763C12.873 34.7103 14.0512 34.9107 15.0164 34.3976C15.8494 33.9517 16.2754 33.1533 16.5902 32.3151C16.5587 32.4315 16.6017 32.3151 16.7223 31.9573C16.7496 31.8818 16.7759 31.8052 16.8031 31.7296C17.0581 30.9952 17.3455 30.2608 17.4494 29.4834C17.5195 28.8958 17.5135 28.3016 17.4316 27.7156ZM5.19735 26.316C5.22149 26.2593 5.24667 26.2016 5.27185 26.145C5.29703 26.0883 5.3285 26.0264 5.35788 25.9677C4.96549 27.2298 5.02529 26.7283 5.19735 26.316ZM11.3223 31.1998C10.8771 30.6486 10.5589 30.0059 10.3907 29.3176C10.3465 29.1239 10.3171 28.9272 10.3026 28.729C10.4587 28.6171 10.651 28.5673 10.8418 28.5895C11.3664 28.6535 11.7168 29.1686 11.891 29.624C11.9908 29.8926 12.0424 30.1767 12.0431 30.4633C12.0431 30.4748 12.0431 30.4853 12.0431 30.4969C11.8431 30.7697 11.5996 31.0079 11.3223 31.2019V31.1998Z" fill="#0DAC5C"/>
<path d="M18.3591 17.4569C18.3528 17.3583 18.3412 17.2597 18.3255 17.1611C18.3528 17.0698 18.378 16.9764 18.3989 16.8778C18.3718 16.7744 18.3392 16.6725 18.3014 16.5725L18.1776 16.6197L18.0548 16.6669C18.0484 16.6488 18.0455 16.6295 18.0464 16.6103C18.0349 16.6522 17.974 16.8012 17.9593 16.8327L18.0695 16.8862L17.953 16.8453C17.8681 17.0845 17.7862 17.3216 17.7243 17.501C17.6488 17.7224 17.5743 17.9385 17.5009 18.1578C17.5009 18.1704 17.4883 18.1893 17.4799 18.2113C17.4327 18.2941 17.4074 18.3877 17.4064 18.483C17.4599 18.4442 17.5113 18.4043 17.5607 18.3603C17.5432 18.3953 17.536 18.4346 17.5397 18.4736C17.547 18.4935 17.5544 18.5124 17.5607 18.5323C17.6851 18.8817 17.741 19.2518 17.7254 19.6224C17.5552 19.875 17.3559 20.1067 17.1316 20.3128C16.8162 20.5969 16.461 20.8334 16.0771 21.0146C16.0939 21.0944 16.1097 21.1741 16.1254 21.2538L16.1369 21.2906C16.2188 21.5473 16.2989 21.805 16.3772 22.0638C16.394 22.1173 16.4097 22.1687 16.4265 22.2254C16.8354 21.8673 17.1648 21.4278 17.3938 20.9349C17.4767 20.7555 17.5491 20.5719 17.6163 20.3851C17.675 20.3232 18.1157 19.0422 18.1314 18.8995C18.2023 18.6874 18.2604 18.4713 18.3056 18.2522C18.3583 17.9913 18.3763 17.7246 18.3591 17.459V17.4569Z" fill="#0DAC5C"/>
<path d="M21.3217 22.9514C20.9419 23.5336 20.8916 24.1694 20.9073 24.8461C20.9231 25.5228 20.9252 26.2205 20.5412 26.8249C20.2317 27.3127 19.7092 27.6002 19.1867 27.8121C18.5184 28.0817 17.8113 28.2454 17.1115 28.4038C17.0223 28.4238 17.3213 30.1213 17.2625 30.1349C17.9623 29.9765 18.6695 29.8129 19.3378 29.5432C19.8624 29.3334 20.3869 29.0438 20.6922 28.556C21.0573 27.98 21.0783 27.3253 21.0615 26.6675C21.0437 25.9603 21.0741 25.2973 21.4728 24.6856C21.4768 24.5991 21.4702 24.5124 21.4529 24.4275C21.4371 24.2229 21.4193 24.0194 21.4015 23.8148C21.3836 23.6102 21.3658 23.4067 21.3459 23.2032C21.3459 23.157 21.2966 22.9828 21.3175 22.9503L21.3217 22.9514Z" fill="#0DAC5C"/>
<path d="M10.248 19.1566L9.46387 20.365L10.6722 21.1491L11.4564 19.9407L10.248 19.1566Z" fill="#0DAC5C"/>
<path d="M11.9898 18.5941L11.2119 19.8041L12.4219 20.5819L13.1998 19.3719L11.9898 18.5941Z" fill="#0DAC5C"/>
<path d="M6.9228 12.5352L6.13867 13.7435L7.34704 14.5277L8.13117 13.3193L6.9228 12.5352Z" fill="#0DAC5C"/>
<path d="M9.80463 24.3954L9.02051 25.6038L10.2289 26.3879L11.013 25.1795L9.80463 24.3954Z" fill="#0DAC5C"/>
<path d="M11.2578 23.9193L10.4736 25.1277L11.682 25.9118L12.4661 24.7034L11.2578 23.9193Z" fill="#0DAC5C"/>
<path d="M18.9481 20.3989L20.0273 21.353L20.9815 20.2738L19.9023 19.3197L18.9481 20.3989Z" fill="#0DAC5C"/>
<path d="M18.8261 18.4668L19.9053 19.4209L20.8594 18.3417L19.7802 17.3876L18.8261 18.4668Z" fill="#0DAC5C"/>
<path d="M32.0497 25.8145C31.4527 24.2942 30.5903 22.9293 29.6807 21.6304C28.7407 20.2812 27.7482 18.9719 26.8249 17.608C25.5607 15.7436 24.3248 13.8436 23.3627 11.7683C23.0826 11.1619 22.8245 10.5419 22.5947 9.90294C22.1278 8.59674 21.7407 7.23284 21.5686 5.83012C21.4092 4.52601 21.3714 3.14217 21.6536 1.84332C21.684 1.70378 21.7187 1.56529 21.7585 1.42365C21.8634 1.239 21.9579 1.0533 22.0575 0.866551C22.1625 0.65672 22.2768 0.452134 22.3849 0.243352C22.4186 0.156965 22.4593 0.0734586 22.5066 -0.00634766C22.3343 0.188228 22.1853 0.402315 22.0628 0.63154C21.7239 1.239 21.3787 1.85696 21.0829 2.49275C20.8412 3.04136 20.6831 3.62312 20.6139 4.21861C20.4355 5.53006 20.509 6.88976 20.7188 8.18128C20.8792 9.14971 21.116 10.1039 21.427 11.035C22.0356 12.8221 22.8366 14.5377 23.8159 16.1517C24.5975 17.4663 25.4526 18.7253 26.3098 19.9791C27.232 21.3272 28.2329 22.6019 29.1425 23.9659C30.0175 25.2637 30.8211 26.6443 31.3352 28.1772C31.7713 29.4863 32.0076 30.8537 32.0361 32.2332C32.0655 33.5976 31.9109 34.9598 31.5765 36.283C31.4089 36.9491 31.1987 37.6037 30.947 38.2428C30.8421 38.5208 30.7225 38.7967 30.5977 39.0685C29.1362 41.4721 27.0841 43.3952 24.7088 44.5797C21.9883 45.9363 18.9269 46.3633 16.0008 46.2017C13.1481 46.0422 10.2839 45.2575 7.84985 43.6103C6.79229 42.8969 5.82392 42.0114 4.92584 41.0703C4.0704 40.182 3.30531 39.211 2.64183 38.1714C1.21027 35.8874 0.360482 33.2872 0.166866 30.5986C0.110993 29.8306 0.0987325 29.0599 0.130145 28.2905C0.113758 28.3377 0.0911786 28.3825 0.0629991 28.4237C-0.490956 35.7059 2.65022 42.3943 7.83306 45.9132C9.45394 46.8252 11.2236 47.4429 13.06 47.7377C15.9137 48.2098 18.9594 48.0639 21.768 47.1554C23.1753 46.7008 24.5026 46.0282 25.7013 45.162C26.7908 44.3702 27.7641 43.4298 28.5927 42.3681L28.6882 42.2464C29.7279 40.8971 30.5421 39.3381 31.3111 37.7864C31.9076 36.5796 32.3537 35.304 32.6393 33.9885C33.2227 31.2543 33.0548 28.366 32.0497 25.8145Z" fill="#0DAC5C"/>
<path d="M22.6842 36.0805C22.6737 35.8308 22.638 37.7466 22.6842 37.2892C22.6842 37.2472 22.6905 37.2063 22.6957 37.1643C22.7041 37.0961 22.7146 37.0279 22.7282 36.9597C22.7579 36.8136 22.7982 36.6698 22.8489 36.5296C22.9476 36.2589 23.0798 36.0016 23.2423 35.7637C23.5745 35.279 24.0009 34.8661 24.4961 34.5498C25.6365 33.8154 27.0025 33.5783 28.2279 33.0296C29.2561 32.569 30.2371 31.8325 30.6714 30.7592C30.7856 30.4833 30.854 30.1906 30.8739 29.8926C30.9059 29.3129 30.9059 28.7318 30.8739 28.1521C30.8435 27.618 30.4721 26.9466 29.8373 27.1197C29.2026 27.2928 28.7577 28.0513 28.5091 28.6022C28.1692 29.3555 28.1314 30.1255 28.1303 30.9386C28.1303 31.2534 28.0842 31.6111 28.1303 31.9248C28.145 32.0077 28.1366 31.8325 28.1366 31.8441C28.1366 31.6846 28.1366 31.5293 28.1366 31.3646C28.1366 32.0896 28.1513 31.4538 28.1797 31.2775C28.2026 31.1289 28.2342 30.9818 28.2741 30.8369C28.358 30.5248 28.4777 30.2234 28.6308 29.9388C28.8815 29.4772 29.2897 28.8686 29.8279 28.7218C29.9533 28.6886 30.0854 28.69 30.21 28.7259C30.3347 28.7617 30.4474 28.8306 30.5361 28.9253C30.6303 29.0203 30.7054 29.1325 30.7574 29.2558C30.7861 29.3207 30.8085 29.3881 30.8246 29.4572L30.8403 29.5338C30.9103 30.0234 30.9173 29.6279 30.8613 28.3472C30.7921 28.9552 30.5492 29.5304 30.1615 30.0038C28.5815 31.9773 25.7288 31.7601 23.919 33.3811C23.4469 33.7922 23.0809 34.3112 22.852 34.894C22.7442 35.1841 22.6819 35.4891 22.6674 35.7983C22.637 36.4047 22.6422 37.0206 22.6674 37.626C22.6674 37.7309 22.6747 37.4948 22.6737 37.5452C22.6737 37.3857 22.6737 37.2304 22.6737 37.0668C22.6737 36.7384 22.6831 36.4089 22.6737 36.0805H22.6842Z" fill="#0DAC5C"/>
<path d="M10.5082 12.2772C10.7862 11.9488 11.2478 12.1282 11.4524 12.4335C11.7168 12.8175 11.7116 13.318 11.6622 13.7618C11.6908 13.6447 11.7312 13.5308 11.7829 13.4218C11.833 13.3118 11.8714 13.1968 11.8973 13.0788C11.9466 12.635 11.9508 12.1345 11.6874 11.7495C11.4776 11.4452 11.016 11.2648 10.7379 11.5932C10.721 11.6263 10.7087 11.6616 10.7012 11.6981C10.6729 11.7789 10.6446 11.8586 10.6173 11.9394C10.59 12.0202 10.5617 12.101 10.5344 12.1817C10.5289 12.218 10.5183 12.2533 10.5029 12.2867L10.5082 12.2772Z" fill="#0DAC5C"/>
<path d="M27.178 26.0926C27.7173 25.8565 28.1768 26.3548 28.2513 26.8563C28.3447 27.4858 28.0415 28.0996 27.7099 28.6158C27.7897 28.4899 27.9575 28.3755 28.0635 28.2696C28.1913 28.1649 28.3074 28.0467 28.4097 27.917C28.7371 27.4009 29.0445 26.7881 28.9511 26.1576C28.8777 25.6572 28.4181 25.1578 27.8789 25.3949C27.8398 25.4235 27.8045 25.457 27.7739 25.4945C27.69 25.5753 27.6071 25.6582 27.5253 25.74C27.4435 25.8219 27.3595 25.9048 27.2787 25.9876C27.2525 26.0149 27.2105 26.0789 27.1738 26.0926H27.178Z" fill="#0DAC5C"/>
<path d="M14.4492 36.7614C14.9885 36.5253 15.448 37.0237 15.5215 37.5252C15.6148 38.1547 15.3116 38.7684 14.9811 39.2846C15.0598 39.1598 15.2287 39.0444 15.3347 38.9394C15.4627 38.8359 15.5795 38.7191 15.683 38.5911C16.0104 38.0749 16.3125 37.4622 16.2244 36.8317C16.1499 36.3312 15.6914 35.8318 15.1522 36.0689C15.1133 36.0979 15.0781 36.1313 15.0472 36.1686L14.7986 36.4141C14.7168 36.497 14.6339 36.5788 14.552 36.6628C14.5258 36.689 14.4849 36.753 14.4524 36.7677L14.4492 36.7614Z" fill="#0DAC5C"/>
<path d="M6.75684 27.7408C7.2961 27.5047 7.75563 28.003 7.82907 28.5045C7.92245 29.134 7.61924 29.7478 7.28771 30.264C7.36745 30.1391 7.53636 30.0237 7.64127 29.9188C7.76915 29.8135 7.88556 29.695 7.98855 29.5652C8.31588 29.0491 8.61804 28.4363 8.52991 27.8058C8.45542 27.3054 7.99694 26.806 7.45662 27.0431C7.41775 27.0719 7.38252 27.1054 7.35171 27.1427L7.10306 27.3882C7.02017 27.4711 6.93834 27.553 6.8565 27.6369C6.83028 27.6631 6.78936 27.7271 6.75684 27.7418V27.7408Z" fill="#0DAC5C"/>
<path d="M9.86388 38.418C9.63411 38.9594 8.95741 38.9111 8.55977 38.5985C8.05933 38.2029 7.86313 37.5493 7.74668 36.946C7.775 37.0919 7.73094 37.2912 7.72675 37.4402C7.70598 37.6044 7.70246 37.7704 7.71625 37.9354C7.83271 38.5345 8.031 39.1944 8.52935 39.5868C8.92698 39.9015 9.60264 39.9487 9.83345 39.4063C9.84232 39.3586 9.84514 39.31 9.84185 39.2615C9.84185 39.1451 9.85024 39.0286 9.85339 38.9122C9.85653 38.7957 9.86073 38.6793 9.86283 38.5628C9.85651 38.5147 9.85651 38.4661 9.86283 38.418H9.86388Z" fill="#0DAC5C"/>
<path d="M11.6268 13.7492C11.802 13.3799 12.0622 13.061 12.2563 12.7001C12.3633 12.4765 12.4528 12.245 12.5238 12.0076C12.6037 11.8101 12.6543 11.6019 12.6739 11.3897C12.6896 10.9605 12.4976 10.5975 12.2364 10.2713C12.0936 10.1178 11.9757 9.94289 11.887 9.75297C11.8232 9.55712 11.807 9.34887 11.8398 9.14551C11.8106 9.26276 11.7702 9.37695 11.7191 9.48648C11.6693 9.59624 11.631 9.71086 11.6048 9.82851C11.5784 10.0009 11.5849 10.1768 11.6237 10.3468C11.6768 10.5149 11.7639 10.6702 11.8796 10.8032C12.1 11.0854 12.3203 11.3487 12.4042 11.7065C12.4425 11.8719 12.4499 12.043 12.4263 12.2111C12.42 12.2552 12.4095 12.2982 12.4 12.3423C12.3402 12.6172 12.6634 11.6771 12.5354 11.9321C12.4934 12.0171 12.4493 12.0989 12.4011 12.1807C12.2248 12.4766 12.0171 12.7536 11.8692 13.0662C11.7642 13.2834 11.7359 13.5341 11.6331 13.7492H11.6268Z" fill="#0DAC5C"/>
<path d="M13.717 29.9786C14.0234 29.5233 14.4378 29.1582 14.7662 28.7196C14.9179 28.5099 15.0358 28.2777 15.1155 28.0314C15.2257 27.7167 15.3715 27.3956 15.4303 27.0662C15.5216 26.5049 15.1963 26.0474 14.8008 25.6865C14.6067 25.5071 14.3811 25.333 14.2426 25.1043C14.1042 24.8755 14.1063 24.5797 14.1566 24.3174C14.0947 24.6447 13.888 24.9469 13.8261 25.2763C13.7348 25.7589 13.8744 26.0863 14.2238 26.4199C14.5553 26.7346 14.9204 27.0211 15.0578 27.4764C15.0888 27.5761 15.1067 27.6795 15.1113 27.7838C15.1187 27.9705 14.9959 28.3346 15.1953 27.7534C15.3946 27.1721 15.254 27.5435 15.1407 27.7009C15.0757 27.7911 15.0064 27.8782 14.9309 27.9622C14.635 28.3157 14.3014 28.6357 14.0444 29.0197C13.9583 29.1477 13.9247 29.3533 13.8744 29.4981C13.824 29.6429 13.7988 29.8527 13.7139 29.9786H13.717Z" fill="#0DAC5C"/>
<path d="M8.89265 8.51392C8.74472 8.8507 8.40794 9.05108 8.06906 9.20531C7.69137 9.37632 7.31577 9.5253 7.02725 9.82326C6.79764 10.0596 6.63537 10.353 6.55723 10.6731C6.49743 10.9238 6.46595 11.1819 6.42713 11.4348C6.3961 11.6039 6.38379 11.776 6.39041 11.9478C6.40028 11.8119 6.42347 11.6773 6.45966 11.546C6.49434 11.4146 6.51474 11.2799 6.52051 11.1442C6.52051 11.0728 6.52051 11.0015 6.52051 10.9343C6.531 10.7969 6.51526 10.885 6.47435 11.1966C6.41559 11.5114 6.403 11.5942 6.43448 11.4589C6.44602 11.418 6.45546 11.3771 6.4691 11.3361C6.51 11.213 6.56381 11.0945 6.62962 10.9826C6.7742 10.739 6.97134 10.5307 7.20666 10.373C7.72389 10.0278 8.49712 9.92713 8.76361 9.32386C8.80242 9.19311 8.82566 9.05824 8.83285 8.92204C8.84859 8.82761 8.86328 8.73319 8.87797 8.63772C8.87887 8.59809 8.88415 8.55868 8.8937 8.52021L8.89265 8.51392Z" fill="#0DAC5C"/>
<path d="M22.8783 38.6436C22.5342 38.5114 22.3191 38.1862 22.1492 37.8546C21.9593 37.4843 21.7935 37.1202 21.4819 36.8422C21.2348 36.6247 20.9342 36.477 20.6111 36.4141C20.3572 36.3659 20.0981 36.3459 19.8431 36.3197C19.673 36.297 19.501 36.2931 19.3301 36.3082C19.466 36.3112 19.6013 36.3278 19.734 36.3575C19.8671 36.3859 20.0029 36.4 20.139 36.3994C20.2093 36.391 20.2806 36.39 20.3488 36.3879C20.4862 36.3879 20.3981 36.3816 20.0855 36.3543C19.7714 36.311 19.6833 36.3019 19.8211 36.327C19.862 36.3365 19.904 36.3449 19.9449 36.3564C20.0702 36.3905 20.1913 36.4387 20.3058 36.5002C20.5561 36.6326 20.7737 36.8194 20.9426 37.0468C21.3119 37.5472 21.4494 38.3152 22.0663 38.5523C22.1989 38.5843 22.3348 38.6012 22.4713 38.6027L22.7566 38.6331C22.7964 38.6323 22.8362 38.6358 22.8752 38.6436H22.8783Z" fill="#0DAC5C"/>
<path d="M19.4279 30.7812C19.5328 31.1432 19.6115 31.5156 19.6913 31.8881C19.7638 32.1993 19.8174 32.5146 19.8518 32.8323C19.9087 33.4397 19.8482 34.0524 19.6734 34.6369C19.5617 35.0477 19.3477 35.4234 19.0513 35.729C18.7449 36.0175 18.278 36.1487 17.9108 35.9189C17.6769 35.7741 17.5846 35.5402 17.5237 35.2768C17.4576 34.9852 17.3915 34.6935 17.3349 34.3997C17.3051 34.2723 17.3026 34.14 17.3275 34.0116C17.3345 34.0652 17.3472 34.1179 17.3653 34.1689C17.3947 34.2959 17.423 34.4239 17.4503 34.5508C17.4775 34.6778 17.5059 34.8058 17.5321 34.9338C17.5508 34.9849 17.5611 35.0388 17.5625 35.0932C17.543 35.1871 17.5391 35.2835 17.551 35.3786L17.5373 35.3041C17.2352 33.7881 17.2813 34.6746 17.7713 34.8845C17.9509 34.9573 18.1493 34.9701 18.3368 34.9212C18.7019 34.8278 18.9747 34.5183 19.1625 34.192C19.3724 33.8091 19.5117 33.3915 19.5738 32.9593C19.6207 32.6679 19.6411 32.373 19.6346 32.078C19.6346 31.9311 19.622 31.7842 19.6052 31.6384C19.5968 31.5597 19.5832 31.482 19.5727 31.4044C19.5272 31.1365 19.5755 31.3526 19.7175 32.0528C19.7007 31.9884 19.6829 31.9244 19.664 31.8608C19.5591 31.5093 19.5328 31.1264 19.4279 30.7802V30.7812Z" fill="#0DAC5C"/>
<path d="M18.6638 22.7908C18.8107 23.0437 18.9345 23.3154 19.0615 23.5766C19.1722 23.7967 19.2693 24.0234 19.3521 24.2554C19.5032 24.7018 19.5673 25.173 19.5409 25.6435C19.5316 25.9728 19.438 26.2943 19.2692 26.5772C19.0908 26.849 18.7635 27.0305 18.4467 26.9245C18.2452 26.8574 18.1319 26.6989 18.0406 26.5111C17.9357 26.3013 17.8308 26.0967 17.7406 25.8816C17.6951 25.7916 17.6694 25.6929 17.665 25.5921C17.6809 25.6306 17.6999 25.6678 17.7217 25.7033C17.7668 25.7935 17.8109 25.8837 17.8549 25.975C17.899 26.0663 17.942 26.1565 17.985 26.2478C18.0077 26.2832 18.025 26.3217 18.0364 26.3622C18.0381 26.4365 18.0526 26.51 18.0795 26.5793L18.0553 26.5258C17.5559 25.4399 17.75 26.1009 18.1602 26.1702C18.3082 26.1924 18.4595 26.1663 18.5914 26.0957C18.8485 25.9603 18.9985 25.676 19.0814 25.4001C19.1706 25.0744 19.2001 24.7353 19.1685 24.3992C19.1516 24.1717 19.1141 23.9463 19.0562 23.7256C19.0279 23.6155 18.9943 23.5063 18.9513 23.4004C18.9303 23.3427 18.9062 23.2871 18.8842 23.2294C18.8023 23.0374 18.8779 23.1905 19.1097 23.692C19.0856 23.6459 19.0604 23.6008 19.0352 23.5567C18.8926 23.3112 18.8055 23.0321 18.6628 22.7866L18.6638 22.7908Z" fill="#0DAC5C"/>
<path d="M2.43624 35.1478C2.56738 34.7544 2.70692 34.3641 2.83177 33.9665C2.92305 33.6727 2.99859 33.3695 3.07203 33.0684C3.12427 32.893 3.14068 32.7089 3.12029 32.527C3.06573 32.1818 2.80554 32.015 2.57053 31.8744C2.31035 31.7303 2.08812 31.5264 1.92215 31.2796C1.71603 30.9552 1.59981 30.5819 1.58537 30.1979C1.57804 30.2362 1.56715 30.2738 1.55285 30.3101L1.48046 30.5829C1.45633 30.6742 1.43219 30.7644 1.40911 30.8567C1.39487 30.8931 1.38569 30.9312 1.38184 30.9701C1.40597 31.567 1.6777 32.1451 2.09631 32.4704C2.29355 32.6225 2.52332 32.7064 2.70587 32.89C2.93144 33.1145 2.95033 33.4146 2.89262 33.7367C2.94839 33.5619 2.99496 33.3844 3.03216 33.2048C3.02377 33.2299 3.01642 33.2551 3.00803 33.2803L2.94508 33.4702L2.84016 33.7661L2.63033 34.3788C2.5464 34.6285 2.50968 34.9033 2.4268 35.1509L2.43624 35.1478Z" fill="#0DAC5C"/>
<path d="M23.8201 29.3785C23.9523 28.985 24.0918 28.5937 24.2156 28.1961C24.3069 27.9034 24.3824 27.6001 24.4569 27.299C24.5083 27.1235 24.5244 26.9395 24.5042 26.7577C24.4496 26.4125 24.1894 26.2446 23.9544 26.104C23.6942 25.9603 23.472 25.7568 23.306 25.5102C23.0999 25.1854 22.9833 24.8119 22.9682 24.4275C22.9612 24.4658 22.9507 24.5034 22.9367 24.5398C22.9115 24.631 22.8874 24.7213 22.8633 24.8125C22.8391 24.9038 22.8161 24.994 22.793 25.0853C22.779 25.1222 22.7695 25.1606 22.7646 25.1997C22.7898 25.7966 23.0616 26.3737 23.4812 26.7C23.6774 26.8521 23.9072 26.936 24.0897 27.1196C24.3153 27.3431 24.3342 27.6442 24.2775 27.9663C24.333 27.7916 24.3792 27.614 24.416 27.4344C24.4076 27.4596 24.4003 27.4847 24.3919 27.5099C24.372 27.5729 24.3499 27.6358 24.3289 27.6998L24.224 27.9957L24.0142 28.6084C23.9313 28.8581 23.8946 29.133 23.8107 29.3806L23.8201 29.3785Z" fill="#0DAC5C"/>
<path d="M19.1049 45.2763C19.5151 45.2155 19.9274 45.162 20.3376 45.0927C20.6408 45.0413 20.9451 44.971 21.2472 44.8997C21.427 44.8661 21.5982 44.7969 21.7508 44.6962C22.0341 44.4863 22.0656 44.1842 22.0834 43.9093C22.0925 43.6123 22.1731 43.3218 22.3184 43.0626C22.5134 42.7314 22.7929 42.4581 23.1284 42.2705C23.091 42.2814 23.0527 42.2891 23.014 42.2936L22.7381 42.3523L22.4622 42.4132C22.4232 42.4176 22.3848 42.4264 22.3478 42.4394C21.8232 42.7332 21.4361 43.2368 21.3364 43.7582C21.2892 44.0027 21.3196 44.245 21.2409 44.4926C21.1444 44.7948 20.8811 44.9511 20.5726 45.0434C20.7536 45.0137 20.9329 44.9744 21.1098 44.9259L21.0322 44.9385L20.8339 44.9689L20.5191 45.0151L19.8802 45.1095C19.62 45.1483 19.3556 45.2407 19.0996 45.2784L19.1049 45.2763Z" fill="#0DAC5C"/>
<path d="M15.2778 11.4002C14.9075 9.87578 15.708 8.5465 16.3018 7.59491C16.6396 7.05459 16.9953 6.51323 17.2345 5.83652C17.3527 5.50829 17.4326 5.1675 17.4727 4.82094C17.4916 4.64676 17.4983 4.47147 17.4926 4.29636C17.4926 4.21767 17.4832 4.13794 17.4737 4.05925C17.4685 4.00679 17.4601 3.95433 17.4517 3.90292C17.3818 3.54271 17.4576 3.78262 17.6794 4.62265C17.5744 4.29006 17.4454 3.80116 17.3646 3.53992C17.6185 4.34252 17.9186 5.13778 17.7895 6.05789C17.671 6.91086 17.3164 7.59281 16.9502 8.19503C16.3144 9.25363 15.1666 10.7204 15.5968 12.4756C15.5307 12.2007 15.3618 11.7412 15.2768 11.395L15.2778 11.4002Z" fill="#0DAC5C"/>
<path d="M15.7026 12.7902C15.6979 12.8732 15.7039 12.9564 15.7204 13.0378L15.7005 12.9602L15.7162 13.0169L15.4067 11.9677C15.5966 12.4828 15.9995 12.4251 16.1852 11.9677C16.4275 11.3665 16.2502 10.6248 16.0886 10.0194C16.161 10.2911 16.3174 10.7538 16.4097 11.099C16.524 11.5291 16.6489 11.9876 16.6353 12.4629C16.6237 12.8521 16.502 13.2812 16.2712 13.425C16.0708 13.5498 15.841 13.3851 15.734 13.0819C15.6291 12.7997 15.5546 12.4891 15.4686 12.1933C15.4066 12.0252 15.374 11.8478 15.3721 11.6687C15.3852 11.724 15.402 11.7783 15.4224 11.8313C15.4623 11.9624 15.5011 12.0946 15.541 12.2268C15.5809 12.359 15.6186 12.4912 15.6564 12.6234C15.6783 12.677 15.6938 12.733 15.7026 12.7902Z" fill="#0DAC5C"/>
<path d="M24.6874 19.7419C24.4199 20.7376 25.083 21.5895 25.574 22.1991C25.8531 22.5442 26.1468 22.8915 26.3504 23.328C26.4504 23.5357 26.521 23.7564 26.5602 23.9837C26.5786 24.0953 26.5871 24.2084 26.5854 24.3215C26.5845 24.3731 26.581 24.4245 26.5749 24.4757C26.5749 24.5104 26.5665 24.5439 26.5602 24.5807C26.5105 24.8157 26.5668 24.6586 26.7291 24.1096C26.6515 24.3278 26.557 24.6468 26.4962 24.8178C26.684 24.2932 26.9085 23.7686 26.7889 23.1748C26.6777 22.6219 26.3829 22.1854 26.0828 21.7983C25.5582 21.1205 24.614 20.1847 24.9288 19.038C24.8805 19.2174 24.7546 19.5164 24.6927 19.7451L24.6874 19.7419Z" fill="#0DAC5C"/>
<path d="M4.32089 32.1409C4.39373 33.0559 4.77212 33.9198 5.39523 34.5938C6.09082 35.3492 6.99729 35.7269 7.99294 35.9032C9.03056 36.0857 10.128 36.1078 11.0922 36.5746C11.8615 36.9587 12.496 37.5675 12.9114 38.3204C13.1481 38.7395 13.3166 39.1935 13.4108 39.6655C13.4328 39.7777 13.4507 39.891 13.4643 40.0043C13.4727 40.0778 13.479 40.1502 13.4832 40.2236C13.522 40.8027 13.521 38.4747 13.4832 39.0695C13.4673 39.3301 13.4255 39.5884 13.3583 39.8407C13.3483 39.9207 13.3465 40.0016 13.3531 40.082C13.3531 40.2771 13.3531 40.4712 13.3531 40.6664C13.3531 40.8615 13.3531 41.0556 13.3531 41.2497C13.3642 41.33 13.366 41.4113 13.3583 41.492C13.5325 40.8279 13.501 40.1397 13.4989 39.4588C13.4989 38.8996 13.4989 38.3488 13.3625 37.8032C13.1367 36.8951 12.634 36.0796 11.9241 35.4699C11.0848 34.7565 10.043 34.5424 8.9781 34.3976C7.8597 34.2455 6.73605 34.0829 5.83063 33.3548C5.39806 33.0049 5.04109 32.5708 4.78139 32.0788C4.52168 31.5868 4.36466 31.0472 4.31984 30.4927C4.36076 31.0382 4.27788 31.5953 4.31984 32.143L4.32089 32.1409Z" fill="#0DAC5C"/>
<path d="M22.6584 38.0666C24.7903 37.7004 26.96 37.9123 29.1055 37.6532C29.3667 37.6217 29.6301 37.5839 29.885 37.5367C30.0644 37.5032 30.5145 37.4948 30.5911 37.2954C30.6126 37.198 30.6179 37.0977 30.6068 36.9985C30.6068 36.753 30.6068 36.5075 30.6068 36.2641C30.6068 35.8969 30.6068 35.5297 30.5817 35.1625C30.5463 34.63 30.468 34.1013 30.3477 33.5814C30.3393 33.5468 30.291 33.2499 30.2617 33.2425C30.2323 33.2352 30.0193 33.4177 29.992 33.4356C29.7958 33.5636 29.5912 33.6779 29.3856 33.7902C28.9782 33.9915 28.5887 34.2271 28.221 34.4942C27.8624 34.7839 27.5689 35.1461 27.3597 35.557C26.8939 36.4425 26.7417 37.4455 26.3483 38.3593C26.0201 39.1224 25.4482 39.7551 24.7221 40.1586C24.0527 40.531 23.12 40.7262 22.4738 40.1995C22.1538 39.9382 21.8883 39.6004 21.5893 39.314C21.2903 39.0276 20.9787 38.7055 20.6619 38.4128C20.0492 37.8483 19.3064 37.3017 18.4429 37.2503C17.6665 37.2031 16.9741 37.6322 16.5544 38.2711C15.9344 39.2227 16.0393 40.403 16.0508 41.4858C16.0603 42.3817 16.268 43.2693 16.8513 43.9765C17.1067 44.2901 17.4259 44.5458 17.7876 44.7267C18.1494 44.9076 18.5455 45.0095 18.9496 45.0256C19.3391 45.0352 19.724 44.9396 20.0638 44.7489C20.4035 44.5582 20.6855 44.2794 20.8801 43.9418C21.055 43.6366 21.1513 43.2926 21.1602 42.9409C21.176 42.4762 21.1676 42.0082 21.1602 41.5424C21.167 41.3245 21.1441 41.1067 21.092 40.8951C20.8591 40.0893 19.9484 39.4966 19.1165 39.6948C18.3306 39.8816 17.8732 40.6706 17.2857 41.1637C16.1316 42.1247 14.2788 41.4018 13.6965 40.1198C13.5422 39.7692 13.4584 39.3916 13.45 39.0087C13.45 38.9038 13.4426 39.1409 13.4447 39.0895C13.4447 39.249 13.4447 39.4042 13.4447 39.5679C13.4447 39.8963 13.4395 40.2257 13.4447 40.5541C13.4646 41.149 13.6189 41.7334 13.9882 42.2097C14.3648 42.6764 14.8891 43.0009 15.4748 43.1298C16.0613 43.2704 16.6425 43.2347 17.1409 42.878C17.6392 42.5213 17.997 41.9831 18.4891 41.6085C18.7694 41.3929 19.1132 41.276 19.4669 41.276C19.8206 41.276 20.1643 41.3929 20.4447 41.6085C20.7191 41.8042 20.9302 42.0759 21.0522 42.3901C21.0807 42.4655 21.1032 42.543 21.1193 42.622C21.1256 42.6514 21.1287 42.6818 21.135 42.7101V42.7395C21.1644 43.0193 21.1672 42.8164 21.1434 42.131V41.4627L21.1361 41.5529C21.1308 41.5917 21.1266 41.6316 21.1193 41.6704C21.1055 41.7491 21.0869 41.8269 21.0637 41.9033C20.6587 43.2305 19.1878 43.7383 17.9655 43.2211C17.336 42.9495 16.8178 42.4713 16.4967 41.8655C16.3253 41.5467 16.2013 41.2046 16.1285 40.85C16.0923 40.6696 16.0681 40.487 16.0561 40.3034C16.0204 39.7977 16.0277 41.7187 16.0561 41.4868C16.0634 41.4249 16.0634 41.3609 16.0697 41.299C16.0791 41.2035 16.0928 41.1081 16.1106 41.0136C16.3477 39.7358 17.4116 38.6006 18.7986 38.9153C19.4837 39.0737 20.0659 39.4903 20.5821 39.954C21.0983 40.4177 21.6124 40.9119 22.0814 41.4228C22.3069 41.6694 22.5409 41.9212 22.863 42.0345C23.164 42.135 23.4854 42.1584 23.7978 42.1027C24.4535 41.9977 25.0568 41.6221 25.5268 41.1658C26.6683 40.062 26.6683 38.397 27.4153 37.074C27.8014 36.3858 28.3805 35.9535 29.0614 35.5821C29.3867 35.4048 29.7171 35.237 30.0245 35.0313C30.077 34.9967 30.1735 34.8897 30.2344 34.8813L30.2638 34.8593C30.2753 34.9012 30.2868 34.9432 30.2973 34.9862L30.3288 35.1132C30.3844 35.3387 30.4337 35.5675 30.4694 35.7972C30.503 35.9976 30.5302 36.2001 30.5512 36.4026C30.5659 36.5379 30.5764 36.6733 30.5848 36.8086C30.5848 36.8527 30.59 36.8957 30.5911 36.9398V36.9828C30.6079 37.4661 30.6079 37.0992 30.5911 35.8822L30.5974 35.6472C30.5701 35.813 30.4568 35.8297 30.312 35.8623C30.14 35.9021 29.9668 35.9357 29.7937 35.9672C29.4643 36.0249 29.1307 36.0721 28.7981 36.1025C28.1172 36.1707 27.4342 36.1959 26.7491 36.2127C25.3852 36.2463 24.0076 36.2494 22.6574 36.4823C22.629 36.4823 22.65 37.2167 22.65 37.2828C22.65 37.3489 22.6731 38.0823 22.6574 38.0844L22.6584 38.0666Z" fill="#0DAC5C"/>
<path d="M27.2878 39.3108C27.2804 39.2799 27.2762 39.2482 27.2752 39.2164C27.2752 39.2028 27.2752 39.1891 27.2752 39.1755V39.1493V39.1283L27.207 39.4126C27.2263 39.3491 27.2576 39.29 27.2993 39.2384C27.3423 39.1887 27.3948 39.148 27.4537 39.1188C27.5126 39.0896 27.5768 39.0725 27.6424 39.0685C27.7877 39.0653 27.933 39.0695 28.0778 39.0811C28.2157 39.085 28.3524 39.0532 28.4744 38.9887C28.6075 38.9164 28.7168 38.8071 28.7891 38.674C28.7952 38.6585 28.7995 38.6423 28.8017 38.6257C28.8122 38.5859 28.8217 38.546 28.8311 38.5061L28.8594 38.3876C28.8611 38.3708 28.8646 38.3543 28.8699 38.3383C28.7976 38.4714 28.6883 38.5807 28.5552 38.653C28.4194 38.7246 28.2667 38.7576 28.1135 38.7485C27.9547 38.728 27.7939 38.728 27.6351 38.7485C27.5641 38.7638 27.4978 38.7953 27.4411 38.8406C27.3845 38.886 27.3392 38.9439 27.3088 39.0097C27.2595 39.1356 27.2243 39.2664 27.2039 39.4C27.181 39.482 27.1774 39.5682 27.1934 39.6518C27.1961 39.6353 27.2007 39.6191 27.207 39.6035C27.2164 39.5637 27.2259 39.5238 27.2364 39.4839C27.2469 39.4441 27.2553 39.4053 27.2637 39.3654C27.27 39.3493 27.2739 39.3323 27.2752 39.315L27.2878 39.3108Z" fill="#0DAC5C"/>
<path d="M27.1865 39.697L27.6167 39.7778C27.7443 39.8085 27.8761 39.8184 28.007 39.8071C28.1212 39.7948 28.2268 39.7402 28.3028 39.654C28.3343 39.616 28.3572 39.5716 28.37 39.5239C28.4025 39.4085 28.4329 39.2899 28.4539 39.1714C28.4539 39.1493 28.4455 39.1976 28.4476 39.1881C28.4392 39.2217 28.4308 39.2553 28.4235 39.2931C28.4067 39.3612 28.3868 39.4305 28.3742 39.5029V39.5144L28.4476 39.207C28.391 39.4116 28.1612 39.4892 27.9702 39.484C27.8599 39.4747 27.7505 39.4568 27.6429 39.4305L27.2684 39.3592C27.26 39.3592 27.1897 39.6959 27.1865 39.6959V39.697Z" fill="#0DAC5C"/>
<path d="M28.4575 39.1629C28.4029 39.3728 28.1857 39.4903 28.0042 39.5668C27.8089 39.6382 27.6217 39.7304 27.4461 39.8417C27.2735 39.9584 27.1328 40.1163 27.0369 40.3013C26.9845 40.4223 26.9452 40.5486 26.9194 40.6779C26.8822 40.8034 26.8611 40.9332 26.8564 41.064C26.8598 41.249 26.9316 41.4261 27.0579 41.5613C27.1291 41.6333 27.2158 41.688 27.3115 41.7211C27.4072 41.7542 27.5093 41.7649 27.6097 41.7522C27.9979 41.7134 28.3379 41.4648 28.5771 41.1679C28.8918 40.7723 29.0492 40.2782 29.2003 39.804C29.2212 39.7368 29.2349 39.6665 29.2517 39.5941C29.259 39.5606 29.2674 39.527 29.2748 39.4892C29.2748 39.4892 29.2821 39.4567 29.2748 39.4724C29.1405 39.8921 29.0041 40.3285 28.7502 40.6968C28.5504 41.0085 28.252 41.2442 27.9025 41.3662C27.7088 41.4367 27.4954 41.43 27.3065 41.3473C27.1528 41.2645 27.0357 41.1271 26.9781 40.9622C26.9473 40.8743 26.9324 40.7816 26.9341 40.6884C26.9341 40.6632 26.9341 40.638 26.9393 40.6129C26.9446 40.5877 26.9446 40.5782 26.9477 40.5604V40.552C26.9666 40.4565 26.9477 40.5405 26.8869 40.8017C26.903 40.7495 26.9223 40.6984 26.9446 40.6485C27.0347 40.4666 27.1684 40.3098 27.3338 40.1921C27.5221 40.0692 27.7238 39.9682 27.935 39.891C28.1448 39.8029 28.3253 39.6749 28.3851 39.4483C28.405 39.3728 28.4228 39.2951 28.4417 39.2185C28.4417 39.2007 28.4648 39.1566 28.4585 39.1409C28.4522 39.1252 28.4585 39.1409 28.4533 39.1577L28.4575 39.1629Z" fill="#0DAC5C"/>
</g>
<path d="M41.1327 32L46.3727 18H49.1127L54.3327 32H51.8727L50.5527 28.54H44.8127L43.5127 32H41.1327ZM45.4527 26.58H49.9127L47.6727 20.48L45.4527 26.58ZM55.72 23.66H53.94V21.76H55.72V18.9H57.9V21.76H60.36V23.66H57.9V29C57.9 29.4 57.98 29.7 58.14 29.86C58.3 30.02 58.56 30.1 58.96 30.1H60.6V32H58.52C57.54 32 56.82 31.78 56.38 31.32C55.94 30.88 55.72 30.18 55.72 29.22V23.66ZM61.19 27.2V25.44H67.99V27.2H61.19ZM67.8003 18H78.7403V20.04H74.4203V32H72.1203V20.04H67.8003V18ZM88.6491 30.12V32H87.5091C86.8291 32 86.3491 31.86 86.0691 31.58C85.7691 31.3 85.6291 30.9 85.6291 30.36C84.8491 31.54 83.7291 32.12 82.2491 32.12C81.0891 32.12 80.1691 31.86 79.4891 31.32C78.7891 30.8 78.4491 30.06 78.4491 29.12C78.4491 28.08 78.8091 27.26 79.5691 26.7C80.3091 26.14 81.3891 25.84 82.8291 25.84H85.4091V25.22C85.4091 24.66 85.2091 24.2 84.8091 23.88C84.4091 23.56 83.8491 23.38 83.1491 23.38C82.5091 23.38 81.9891 23.52 81.5891 23.8C81.1891 24.08 80.9491 24.44 80.8691 24.88H78.7491C78.8491 23.86 79.3091 23.06 80.1091 22.5C80.9091 21.94 81.9491 21.64 83.2491 21.64C84.6091 21.64 85.6691 21.96 86.4291 22.6C87.1691 23.24 87.5491 24.16 87.5491 25.36V29.4C87.5491 29.88 87.7691 30.12 88.2291 30.12H88.6491ZM85.4091 27.44H82.7291C82.0491 27.44 81.5491 27.58 81.1891 27.84C80.8291 28.1 80.6491 28.48 80.6491 28.98C80.6491 29.42 80.8091 29.78 81.1491 30.04C81.4891 30.32 81.9491 30.44 82.5491 30.44C83.4291 30.44 84.1291 30.2 84.6291 29.72C85.1291 29.24 85.3891 28.6 85.4091 27.8V27.44ZM89.8256 18H91.9856V32H89.8256V18ZM104.043 21.76V36H101.883V30.48C101.063 31.58 99.963 32.12 98.563 32.12C97.623 32.12 96.783 31.92 96.063 31.5C95.323 31.08 94.743 30.48 94.343 29.68C93.923 28.9 93.723 27.96 93.723 26.88C93.723 25.86 93.923 24.96 94.343 24.16C94.763 23.36 95.343 22.74 96.083 22.3C96.803 21.86 97.643 21.64 98.563 21.64C99.323 21.64 100.003 21.8 100.563 22.08C101.123 22.36 101.583 22.74 101.923 23.22L102.163 21.76H104.043ZM101.083 29.36C101.623 28.72 101.903 27.9 101.903 26.9C101.903 25.9 101.623 25.08 101.083 24.44C100.523 23.8 99.803 23.48 98.923 23.48C98.023 23.48 97.303 23.8 96.763 24.42C96.203 25.06 95.943 25.88 95.943 26.88C95.943 27.9 96.203 28.72 96.763 29.36C97.303 30 98.023 30.3 98.923 30.3C99.803 30.3 100.523 30 101.083 29.36ZM106.394 24.14C106.814 23.34 107.394 22.74 108.154 22.3C108.914 21.86 109.774 21.64 110.754 21.64C111.734 21.64 112.594 21.84 113.354 22.24C114.114 22.64 114.694 23.22 115.134 23.94C115.574 24.68 115.794 25.54 115.814 26.52C115.814 26.8 115.794 27.06 115.754 27.34H108.034V27.46C108.074 28.36 108.354 29.06 108.874 29.58C109.374 30.1 110.054 30.36 110.894 30.36C111.554 30.36 112.114 30.22 112.574 29.9C113.014 29.58 113.314 29.14 113.474 28.56H115.634C115.434 29.6 114.934 30.46 114.114 31.12C113.294 31.8 112.274 32.12 111.054 32.12C109.974 32.12 109.054 31.92 108.254 31.48C107.454 31.04 106.854 30.44 106.414 29.64C105.974 28.86 105.774 27.94 105.774 26.9C105.774 25.86 105.974 24.94 106.394 24.14ZM113.614 25.76C113.514 25.02 113.214 24.44 112.714 24.02C112.214 23.6 111.594 23.38 110.834 23.38C110.114 23.38 109.514 23.6 108.994 24.04C108.474 24.48 108.194 25.04 108.114 25.76H113.614ZM117.8 24.14C118.22 23.34 118.8 22.74 119.56 22.3C120.32 21.86 121.18 21.64 122.16 21.64C123.14 21.64 124 21.84 124.76 22.24C125.52 22.64 126.1 23.22 126.54 23.94C126.98 24.68 127.2 25.54 127.22 26.52C127.22 26.8 127.2 27.06 127.16 27.34H119.44V27.46C119.48 28.36 119.76 29.06 120.28 29.58C120.78 30.1 121.46 30.36 122.3 30.36C122.96 30.36 123.52 30.22 123.98 29.9C124.42 29.58 124.72 29.14 124.88 28.56H127.04C126.84 29.6 126.34 30.46 125.52 31.12C124.7 31.8 123.68 32.12 122.46 32.12C121.38 32.12 120.46 31.92 119.66 31.48C118.86 31.04 118.26 30.44 117.82 29.64C117.38 28.86 117.18 27.94 117.18 26.9C117.18 25.86 117.38 24.94 117.8 24.14ZM125.02 25.76C124.92 25.02 124.62 24.44 124.12 24.02C123.62 23.6 123 23.38 122.24 23.38C121.52 23.38 120.92 23.6 120.4 24.04C119.88 24.48 119.6 25.04 119.52 25.76H125.02ZM137.326 22.76C138.086 23.52 138.486 24.72 138.486 26.36V32H136.306V26.48C136.306 25.52 136.086 24.78 135.686 24.26C135.266 23.76 134.666 23.5 133.866 23.5C133.006 23.5 132.326 23.8 131.846 24.4C131.366 25 131.126 25.8 131.126 26.84V32H128.966V21.76H130.846L131.086 23.1C131.846 22.14 132.946 21.64 134.366 21.64C135.566 21.64 136.566 22.02 137.326 22.76ZM145.788 18H148.088V32H145.788V18ZM158.791 22.76C159.551 23.52 159.951 24.72 159.951 26.36V32H157.771V26.48C157.771 25.52 157.551 24.78 157.151 24.26C156.731 23.76 156.131 23.5 155.331 23.5C154.471 23.5 153.791 23.8 153.311 24.4C152.831 25 152.591 25.8 152.591 26.84V32H150.431V21.76H152.311L152.551 23.1C153.311 22.14 154.411 21.64 155.831 21.64C157.031 21.64 158.031 22.02 158.791 22.76ZM163.635 28.62C163.675 29.16 163.915 29.6 164.375 29.94C164.835 30.28 165.435 30.44 166.175 30.44C166.815 30.44 167.355 30.32 167.755 30.08C168.155 29.84 168.375 29.5 168.375 29.08C168.375 28.74 168.275 28.48 168.095 28.3C167.895 28.14 167.655 28.02 167.335 27.94C167.015 27.86 166.535 27.78 165.895 27.7C164.995 27.6 164.255 27.46 163.675 27.28C163.095 27.1 162.635 26.82 162.275 26.42C161.915 26.02 161.755 25.5 161.755 24.82C161.755 24.2 161.915 23.64 162.275 23.16C162.635 22.68 163.115 22.3 163.735 22.02C164.355 21.76 165.055 21.62 165.855 21.62C167.135 21.62 168.195 21.92 168.995 22.48C169.795 23.06 170.235 23.86 170.315 24.9H168.215C168.155 24.44 167.915 24.06 167.515 23.76C167.095 23.46 166.575 23.3 165.955 23.3C165.315 23.3 164.815 23.42 164.435 23.66C164.035 23.9 163.855 24.24 163.855 24.64C163.855 24.96 163.935 25.18 164.135 25.34C164.335 25.5 164.575 25.6 164.875 25.66C165.155 25.72 165.635 25.78 166.295 25.86C167.175 25.96 167.915 26.1 168.515 26.3C169.115 26.5 169.595 26.8 169.955 27.22C170.315 27.64 170.495 28.2 170.495 28.92C170.495 29.56 170.295 30.14 169.935 30.62C169.555 31.1 169.035 31.48 168.395 31.74C167.735 32 166.995 32.12 166.195 32.12C164.815 32.12 163.695 31.82 162.855 31.2C162.015 30.58 161.575 29.72 161.555 28.62H163.635ZM172.908 23.66H171.127V21.76H172.908V18.9H175.088V21.76H177.548V23.66H175.088V29C175.088 29.4 175.168 29.7 175.328 29.86C175.488 30.02 175.748 30.1 176.148 30.1H177.788V32H175.708C174.728 32 174.008 31.78 173.568 31.32C173.128 30.88 172.908 30.18 172.908 29.22V23.66ZM180.967 18.04C181.207 18.28 181.347 18.6 181.347 18.96C181.347 19.34 181.207 19.66 180.967 19.9C180.707 20.14 180.387 20.26 180.027 20.26C179.647 20.26 179.327 20.14 179.087 19.9C178.827 19.66 178.707 19.34 178.707 18.96C178.707 18.6 178.827 18.28 179.087 18.04C179.327 17.8 179.647 17.66 180.027 17.66C180.387 17.66 180.707 17.8 180.967 18.04ZM178.947 21.76H181.107V32H178.947V21.76ZM183.884 23.66H182.104V21.76H183.884V18.9H186.064V21.76H188.524V23.66H186.064V29C186.064 29.4 186.144 29.7 186.304 29.86C186.464 30.02 186.724 30.1 187.124 30.1H188.764V32H186.684C185.704 32 184.984 31.78 184.544 31.32C184.104 30.88 183.884 30.18 183.884 29.22V23.66ZM199.103 21.76V32H197.203L196.963 30.7C196.183 31.66 195.123 32.12 193.803 32.12C192.603 32.12 191.623 31.76 190.883 31C190.123 30.26 189.763 29.06 189.763 27.4V21.76H191.923V27.18C191.923 28.18 192.123 28.94 192.523 29.46C192.923 29.98 193.503 30.24 194.303 30.24C195.123 30.24 195.763 29.94 196.243 29.34C196.703 28.74 196.943 27.9 196.943 26.84V21.76H199.103ZM201.95 23.66H200.17V21.76H201.95V18.9H204.13V21.76H206.59V23.66H204.13V29C204.13 29.4 204.21 29.7 204.37 29.86C204.53 30.02 204.79 30.1 205.19 30.1H206.83V32H204.75C203.77 32 203.05 31.78 202.61 31.32C202.17 30.88 201.95 30.18 201.95 29.22V23.66ZM208.015 24.14C208.435 23.34 209.015 22.74 209.775 22.3C210.535 21.86 211.395 21.64 212.375 21.64C213.355 21.64 214.215 21.84 214.975 22.24C215.735 22.64 216.315 23.22 216.755 23.94C217.195 24.68 217.415 25.54 217.435 26.52C217.435 26.8 217.415 27.06 217.375 27.34H209.655V27.46C209.695 28.36 209.975 29.06 210.495 29.58C210.995 30.1 211.675 30.36 212.515 30.36C213.175 30.36 213.735 30.22 214.195 29.9C214.635 29.58 214.935 29.14 215.095 28.56H217.255C217.055 29.6 216.555 30.46 215.735 31.12C214.915 31.8 213.895 32.12 212.675 32.12C211.595 32.12 210.675 31.92 209.875 31.48C209.075 31.04 208.475 30.44 208.035 29.64C207.595 28.86 207.395 27.94 207.395 26.9C207.395 25.86 207.595 24.94 208.015 24.14ZM215.235 25.76C215.135 25.02 214.835 24.44 214.335 24.02C213.835 23.6 213.215 23.38 212.455 23.38C211.735 23.38 211.135 23.6 210.615 24.04C210.095 24.48 209.815 25.04 209.735 25.76H215.235Z" fill="#101828"/>
<defs>
<clipPath id="clip0_215_12269">
<rect width="32.9729" height="48" fill="white"/>
</clipPath>
</defs>
</svg>