<svg width="218" height="48" viewBox="0 0 218 48" fill="none" xmlns="http://www.w3.org/2000/svg">
<path d="M13.3747 39.6225C13.0885 39.9329 12.7584 40.1998 12.3948 40.4146C12.0383 40.6271 11.6611 40.8029 11.269 40.9392C10.4952 41.2095 9.67108 41.3049 8.85599 41.2182C8.03482 41.1204 7.24718 40.835 6.55402 40.384C5.86086 39.933 5.28079 39.3285 4.8587 38.6174C4.42015 37.8777 4.12429 36.9786 4.11065 36.113C4.11065 36.1498 4.11065 35.8791 4.11065 35.8791C4.11065 35.8791 4.10435 36.1498 4.10435 36.113C4.10016 36.4907 4.10016 36.8684 4.10435 37.2461C4.1138 38.0855 4.2355 38.8996 4.58172 39.6739C4.92017 40.4274 5.42611 41.0938 6.06103 41.6222C6.71982 42.1672 7.4994 42.5469 8.33474 42.7294C9.17007 42.9119 10.0369 42.892 10.863 42.6713C11.3319 42.5472 11.7839 42.3664 12.2091 42.1331C12.6473 41.8993 13.0437 41.5944 13.3821 41.2308C13.3913 41.1528 13.3913 41.0739 13.3821 40.9958C13.3821 40.807 13.3821 40.6181 13.3821 40.4293C13.3821 40.2404 13.3821 40.0516 13.3821 39.8627C13.3821 39.8229 13.3558 39.6529 13.3821 39.6277L13.3747 39.6225Z" fill="#0DAC5C"/>
<path d="M16.177 0.1857C16.2525 1.24745 15.7878 2.2966 15.0953 3.07613C14.3305 3.93749 13.3118 4.4799 12.25 4.88173C11.0089 5.3486 9.70895 5.64447 8.48563 6.1617C7.40098 6.61084 6.38656 7.21363 5.47351 7.95156C3.75918 9.35848 2.60091 11.4369 2.60826 13.6905C2.60826 14.0419 2.64288 14.3934 2.67226 14.7396C2.71422 15.2443 2.74465 15.7573 2.82648 16.2588C2.90816 16.7868 3.08368 17.296 3.34476 17.7622C3.92095 18.7448 4.80639 19.5089 5.86274 19.935C6.40742 20.151 6.99734 20.2278 7.57916 20.1585C7.86697 20.1206 8.14893 20.047 8.41849 19.9392C8.71435 19.8217 9.07421 19.6623 9.29769 19.4304C9.52116 19.1985 9.76246 19.0328 9.97229 18.8072C10.1982 18.5611 10.3963 18.2909 10.563 18.0014C10.876 17.4453 11.1127 16.8497 11.267 16.2305C11.2721 16.1441 11.2668 16.0575 11.2512 15.9724C11.2358 15.7625 11.2183 15.5559 11.1988 15.3523C11.1809 15.1425 11.1631 14.9379 11.1421 14.7323C11.1216 14.6482 11.1121 14.5618 11.1138 14.4752C10.8337 15.5317 10.3741 16.5851 9.54004 17.3237C9.43512 17.4171 9.30818 17.4957 9.2106 17.5954C9.11548 17.6992 9.00761 17.7905 8.88956 17.8671C8.65018 18.0195 8.39518 18.1458 8.12892 18.2438C7.65811 18.4093 7.15663 18.4691 6.6601 18.419C5.59416 18.3141 4.64677 17.7056 3.91341 16.9502C3.32634 16.3711 2.91809 15.6354 2.7373 14.8309C2.70583 14.6966 2.68379 14.5613 2.66281 14.4249C2.56629 13.7954 2.77507 16.2431 2.76773 15.601C2.76773 15.5118 2.76773 15.4237 2.76773 15.3345C2.7992 13.1501 3.9218 11.1379 5.57213 9.75821C6.44171 9.04494 7.40597 8.45565 8.43738 8.00717C9.61138 7.48259 10.862 7.18463 12.0706 6.75972C13.2562 6.34006 14.4092 5.78715 15.2558 4.83242C15.638 4.41096 15.9299 3.91586 16.1137 3.3775C16.2976 2.83913 16.3695 2.26888 16.3249 1.70173C16.2966 1.30096 16.2609 0.900177 16.22 0.500448C16.2116 0.407073 16.2337 0.166816 16.1802 0.0975716C16.1497 0.0608511 16.1802 0.11121 16.1802 0.18675L16.177 0.1857Z" fill="#0DAC5C"/>
<path d="M13.893 17.0562C14.0115 17.6647 14.1427 18.269 14.278 18.8701C12.8375 18.4851 11.4967 17.4758 11.14 16.157C11.0666 15.8832 11.0792 15.5663 11.055 15.2852C11.0372 15.0753 11.0194 14.8739 11.0036 14.6672C11.005 14.5816 10.9997 14.496 10.9879 14.4112C11.1977 15.174 11.7223 15.7972 12.3518 16.2609C12.8206 16.6053 13.3407 16.8736 13.893 17.0562Z" fill="#0DAC5C"/>
<path d="M18.4107 16.8054L18.3949 16.8841C18.3678 16.7807 18.3352 16.6788 18.2974 16.5788L18.1736 16.626L18.0508 16.6732C18.0444 16.655 18.0415 16.6358 18.0424 16.6166C18.0309 16.6585 17.97 16.8075 17.9553 16.839L18.0655 16.8925L17.949 16.8516C17.8641 17.0908 17.7822 17.3279 17.7203 17.5073C17.6448 17.7287 17.5703 17.9448 17.4968 18.1641C17.4968 18.1767 17.4843 18.1955 17.4759 18.2176C17.4287 18.3004 17.4034 18.3939 17.4024 18.4893C16.8861 18.8461 16.2737 19.0378 15.6461 19.0391L15.409 18.0056C15.3545 17.7727 15.3041 17.5377 15.2464 17.3017C15.6727 17.3179 16.0986 17.2604 16.5054 17.1317C16.8553 17.0237 17.177 16.8396 17.4473 16.5926C17.7176 16.3455 17.9298 16.0416 18.0686 15.7027C18.2139 15.3322 18.2993 14.9408 18.3215 14.5434C18.3215 14.5287 18.3215 14.514 18.3215 14.4994C18.2942 14.278 18.2879 14.0514 18.269 13.8321C18.2438 13.5499 18.2564 13.2372 18.2008 12.9592C18.3603 13.7566 18.4033 14.5801 18.46 15.389C18.505 15.8613 18.4884 16.3374 18.4107 16.8054Z" fill="#0DAC5C"/>
<path d="M18.4684 15.389C18.4117 14.5801 18.3687 13.7566 18.2092 12.9592C18.2648 13.2372 18.2522 13.5499 18.2774 13.8321C18.2963 14.0514 18.3026 14.278 18.3299 14.4994C18.3299 14.514 18.3299 14.5287 18.3299 14.5434C18.3077 14.9408 18.2223 15.3322 18.077 15.7027C17.9382 16.0416 17.726 16.3455 17.4557 16.5926C17.1854 16.8396 16.8637 17.0237 16.5138 17.1317C16.107 17.2604 15.6811 17.3179 15.2548 17.3017C15.3094 17.5377 15.3597 17.7727 15.4174 18.0056L15.6545 19.0391C16.2821 19.0378 16.8945 18.8461 17.4108 18.4893C17.4118 18.3939 17.4371 18.3004 17.4843 18.2176C17.4927 18.1955 17.5021 18.1767 17.5052 18.1641C17.5787 17.9448 17.6532 17.7287 17.7287 17.5073C17.7906 17.3279 17.8724 17.0876 17.9574 16.8516L18.0739 16.8925L17.9637 16.839C17.9784 16.8075 18.0393 16.6585 18.0508 16.6166C18.0499 16.6358 18.0528 16.655 18.0592 16.6732L18.1819 16.626L18.3057 16.5788C18.3436 16.6788 18.3762 16.7807 18.4033 16.8841L18.4191 16.8054C18.4968 16.3374 18.5134 15.8613 18.4684 15.389ZM18.3635 14.7165C18.3823 14.812 18.4002 14.9085 18.4149 15.005C18.4233 15.0565 18.4296 15.11 18.4369 15.1593C18.4904 15.5464 18.4327 15.9986 18.3645 14.7165H18.3635ZM13.8919 17.0562C13.3382 16.874 12.8166 16.6056 12.3465 16.2609C11.717 15.7972 11.1925 15.174 10.9826 14.4112C10.9945 14.496 10.9997 14.5816 10.9984 14.6672C11.0141 14.8771 11.0319 15.0795 11.0498 15.2852C11.0739 15.5663 11.0613 15.8832 11.1348 16.157C11.4915 17.4758 12.8323 18.4851 14.2728 18.8701C14.1427 18.269 14.0115 17.6647 13.893 17.0562H13.8919Z" fill="#0DAC5C"/>
<path d="M21.4228 1.58737C20.6139 2.59876 20.1775 3.74129 19.7641 4.95517C19.3874 6.05993 19.1346 7.1584 19.1189 8.33346C19.0821 10.8787 19.9844 13.3191 20.9622 15.6293C22.0303 18.1557 23.1424 20.6653 24.2345 23.1832C24.7591 24.3887 25.3813 25.6057 25.6278 26.9056C25.7386 27.4549 25.7499 28.0195 25.6614 28.5728C25.6488 28.6483 25.6331 28.7238 25.6152 28.7994L25.5848 28.9221C25.5072 29.1851 25.5642 29.0228 25.7558 28.4353L25.9478 27.8751C25.9226 27.9391 25.8954 28.002 25.8649 28.0639C25.8345 28.1258 25.8072 28.1804 25.7758 28.2381C25.6438 28.4784 25.4816 28.7009 25.2931 28.9001C24.4926 29.7394 23.1675 30.1801 22.0408 29.8506C21.5449 29.7075 21.1131 29.3987 20.8174 28.9756C20.6803 28.7798 20.5852 28.5575 20.5384 28.3231C20.517 28.2104 20.5093 28.0956 20.5153 27.981C20.5153 27.9433 20.5216 27.9055 20.5268 27.8677C20.6254 27.1942 19.8973 29.41 20.1722 28.8885C20.2773 28.6507 20.3643 28.4052 20.4324 28.1541C20.5132 27.9202 20.5625 27.639 20.6779 27.4197C20.4901 27.7775 20.3831 28.1856 20.2582 28.5644C20.1617 28.8476 20.0327 29.1414 20.0148 29.4436C20.006 29.8844 20.1689 30.3114 20.4691 30.6343C21.171 31.4338 22.3146 31.567 23.2913 31.2722C23.8058 31.1187 24.2767 30.8456 24.6654 30.4752C25.0542 30.1049 25.3498 29.6478 25.5282 29.1414C25.7967 28.4133 26.1188 27.6526 26.207 26.8742C26.2652 26.2868 26.2198 25.6937 26.0727 25.1221C25.7506 23.7834 25.098 22.5202 24.5524 21.2633L22.8654 17.3814C21.7732 14.8634 20.5258 12.3454 19.9351 9.65015C19.6339 8.35786 19.5597 7.02303 19.7158 5.70532C19.7563 5.39592 19.8127 5.08881 19.8847 4.78521C19.9246 4.61629 19.9718 4.45053 20.0201 4.28371L19.7106 5.17759L19.7672 5.03176C19.8029 4.94258 19.8407 4.85445 19.8795 4.76632C20.1548 4.15385 20.5074 3.57914 20.9286 3.0562C20.9631 2.98962 20.9895 2.91918 21.0073 2.84636C21.0692 2.6743 21.129 2.50119 21.1878 2.32913C21.2465 2.15707 21.3074 1.98291 21.364 1.80455C21.3781 1.72991 21.4013 1.65731 21.4333 1.58842L21.4228 1.58737Z" fill="#0DAC5C"/>
<path d="M5.27207 26.1534C5.24689 26.2101 5.22171 26.2678 5.19758 26.3244C5.02551 26.7346 4.96571 27.2361 5.3581 25.9761C5.32872 26.0348 5.2962 26.0936 5.27207 26.1534Z" fill="#0DAC5C"/>
<path d="M16.2442 22.0932L16.2379 22.0732C16.2546 22.1655 16.2704 22.26 16.2861 22.347L16.2945 22.3418L16.2442 22.0932Z" fill="#0DAC5C"/>
<path d="M17.4318 27.7219C17.3176 26.9237 17.1621 26.1319 16.966 25.3497C16.7813 24.5503 16.5974 23.7508 16.4141 22.9514C16.3952 22.8685 16.3763 22.7846 16.3564 22.7006C16.3176 22.6786 16.2316 22.1865 16.177 21.8613C16.177 21.855 16.177 21.8498 16.177 21.8445C16.1674 21.8131 16.1593 21.7812 16.1529 21.749V21.706L16.1592 21.7228C16.1592 21.7008 16.1518 21.6808 16.1487 21.663C16.1193 21.5654 16.0899 21.4679 16.0616 21.3692C16.0385 21.2937 16.0165 21.2182 15.9955 21.1416C15.9857 21.1102 15.9777 21.0783 15.9714 21.0461L15.9798 21.0377L15.5517 19.1754L15.5202 19.0433C15.4601 18.7796 15.3996 18.5162 15.3387 18.2532C15.2688 17.9357 15.1957 17.6171 15.1195 17.2975L15.0901 17.1642C14.8246 15.9976 14.5739 14.8267 14.3934 13.6443C14.1458 12.1485 14.0662 10.6296 14.1563 9.11613C14.2037 8.4492 14.2948 7.7861 14.4291 7.13112C14.4805 6.87932 14.5393 6.63067 14.6043 6.38202C14.6169 6.3516 14.6306 6.32117 14.6442 6.29075C14.9152 5.67836 15.2377 5.09011 15.6084 4.53236C15.651 4.44662 15.6844 4.35658 15.708 4.26378C15.7857 4.04555 15.8619 3.82733 15.9368 3.6091C16.0116 3.39088 16.0861 3.1723 16.1602 2.95338C16.1789 2.85925 16.2077 2.76744 16.2463 2.67955C15.3282 4.06444 14.8037 5.61719 14.2833 7.18253C13.8545 8.46147 13.5935 9.79067 13.5069 11.1368C13.3842 13.0977 13.6339 15.0386 14.0073 16.9586L14.0357 17.1034C14.1553 17.7066 14.2864 18.3088 14.4218 18.909L14.4532 19.0485L14.6515 19.9151C14.7404 20.3026 14.8292 20.6897 14.918 21.0765C14.9289 21.1141 14.9376 21.1523 14.9442 21.1909C14.9621 21.2643 14.9789 21.3378 14.9957 21.4123H14.9904C15.0051 21.4815 15.0187 21.5507 15.0324 21.6221H15.0439C15.0576 21.6724 15.0701 21.727 15.0796 21.7742L15.1153 21.9494C15.1698 22.2138 15.2202 22.474 15.2737 22.7436C15.2852 22.8076 15.2978 22.8706 15.3104 22.9346L15.3419 22.9209L15.7101 24.5199C16.0595 26.039 16.4718 27.5624 16.7247 29.0973C16.8435 29.7374 16.8847 30.3894 16.8474 31.0393C16.838 31.1642 16.8243 31.289 16.8055 31.4128C16.4078 32.0654 15.8182 32.5963 15.0555 32.7767C13.8458 33.0663 12.6613 32.5596 11.7779 31.7097C11.8503 31.5555 11.9153 31.395 11.9762 31.2376C12.0811 31.075 12.5238 29.7352 12.4515 29.794C12.6393 29.2169 12.7578 28.6399 12.6067 28.0335C12.4819 27.5404 12.1703 26.9654 11.6625 26.7892C11.1012 26.5951 10.6889 27.0389 10.4832 27.5121C10.4476 27.5928 10.415 27.6747 10.3783 27.7565C10.371 27.5771 9.6439 29.687 9.81911 29.3984C9.74011 29.623 9.68799 29.8561 9.66384 30.093C9.62893 30.6353 9.70938 31.1788 9.8999 31.6877C9.90724 31.7066 9.91354 31.7265 9.92193 31.7454C9.80421 31.7591 9.68583 31.7665 9.56732 31.7674C8.35974 31.7758 7.28015 31.1442 6.54784 30.2073C5.84185 29.2724 5.44306 28.1416 5.40636 26.9707C5.38918 26.5659 5.41202 26.1603 5.47455 25.76C5.53645 25.655 5.6015 25.5501 5.6718 25.4452C6.23499 24.61 7.0972 24.0226 8.08066 23.8043C9.57361 23.4812 11.1159 23.6344 12.6298 23.5315C13.4849 23.4728 14.3651 23.3301 15.1635 22.9996C15.11 22.7415 15.0586 22.4813 15.0093 22.2222C14.96 21.9631 14.9096 21.706 14.8614 21.4469C14.3917 21.5561 13.9143 21.629 13.4335 21.6651C11.8765 21.791 10.286 21.6189 8.75212 21.9442C8.2383 22.0543 7.75155 22.2656 7.32031 22.5659C6.88907 22.8662 6.52197 23.2494 6.24044 23.6931C5.88897 24.2366 5.68648 24.8472 5.4756 25.4505C5.21227 26.2069 4.9185 26.9654 4.81463 27.7638C4.66172 28.9004 4.83719 30.057 5.32033 31.097C5.8512 32.2175 6.80174 33.1953 8.0303 33.5101C8.47818 33.6301 8.94654 33.653 9.40398 33.5772C9.86142 33.5013 10.2974 33.3286 10.6826 33.0705C11.0382 33.5154 11.4715 33.8922 11.9615 34.1826C12.8732 34.7166 14.0514 34.917 15.0166 34.404C15.8497 33.9581 16.2756 33.1597 16.5904 32.3214C16.5589 32.4378 16.6019 32.3214 16.7226 31.9636C16.7498 31.8881 16.7761 31.8115 16.8034 31.736C17.0583 31.0016 17.3458 30.2671 17.4496 29.4897C17.5197 28.9021 17.5137 28.3079 17.4318 27.7219ZM5.19758 26.3223C5.22171 26.2657 5.24689 26.2079 5.27207 26.1513C5.29725 26.0946 5.32872 26.0327 5.3581 25.974C4.96571 27.2361 5.02551 26.7346 5.19758 26.3223ZM11.3226 31.2061C10.8773 30.6549 10.5592 30.0123 10.3909 29.3239C10.3467 29.1303 10.3173 28.9335 10.3028 28.7354C10.4589 28.6234 10.6512 28.5736 10.842 28.5958C11.3666 28.6598 11.717 29.175 11.8912 29.6303C11.9911 29.8989 12.0426 30.1831 12.0433 30.4696C12.0433 30.4812 12.0433 30.4917 12.0433 30.5032C11.8433 30.7761 11.5998 31.0143 11.3226 31.2082V31.2061Z" fill="#0DAC5C"/>
<path d="M18.3593 17.4632C18.353 17.3646 18.3414 17.266 18.3257 17.1674C18.353 17.0761 18.3781 16.9827 18.3991 16.8841C18.372 16.7807 18.3394 16.6788 18.3016 16.5788L18.1778 16.626L18.055 16.6732C18.0486 16.655 18.0457 16.6358 18.0466 16.6166C18.0351 16.6585 17.9742 16.8075 17.9595 16.839L18.0697 16.8925L17.9532 16.8516C17.8683 17.0908 17.7864 17.3279 17.7245 17.5073C17.649 17.7287 17.5745 17.9448 17.501 18.1641C17.501 18.1767 17.4885 18.1955 17.4801 18.2176C17.4329 18.3004 17.4076 18.3939 17.4066 18.4893C17.4601 18.4505 17.5115 18.4106 17.5608 18.3666C17.5434 18.4016 17.5361 18.4409 17.5399 18.4799C17.5472 18.4998 17.5546 18.5187 17.5608 18.5386C17.6853 18.888 17.7412 19.2581 17.7256 19.6287C17.5554 19.8813 17.3561 20.113 17.1317 20.319C16.8164 20.6032 16.4612 20.8397 16.0773 21.0209C16.0941 21.1007 16.1099 21.1804 16.1256 21.2601L16.1371 21.2968C16.219 21.5535 16.2991 21.8113 16.3774 22.0701C16.3942 22.1236 16.4099 22.175 16.4267 22.2316C16.8355 21.8736 17.165 21.434 17.394 20.9412C17.4769 20.7618 17.5493 20.5782 17.6165 20.3914C17.6752 20.3295 18.1159 19.0485 18.1316 18.9058C18.2025 18.6937 18.2606 18.4775 18.3057 18.2585C18.3585 17.9976 18.3765 17.7309 18.3593 17.4653V17.4632Z" fill="#0DAC5C"/>
<path d="M21.3221 22.9577C20.9423 23.5399 20.8919 24.1757 20.9077 24.8524C20.9234 25.5291 20.9255 26.2268 20.5415 26.8312C20.232 27.319 19.7095 27.6065 19.187 27.8184C18.5187 28.088 17.8116 28.2517 17.1118 28.4101C17.0226 28.4301 17.3216 30.1276 17.2629 30.1412C17.9627 29.9828 18.6698 29.8192 19.3381 29.5495C19.8627 29.3397 20.3873 29.0501 20.6926 28.5623C21.0577 27.9863 21.0787 27.3316 21.0619 26.6738C21.0441 25.9666 21.0745 25.3036 21.4732 24.6919C21.4772 24.6054 21.4705 24.5187 21.4532 24.4338C21.4375 24.2292 21.4197 24.0257 21.4018 23.8211C21.384 23.6165 21.3661 23.413 21.3462 23.2095C21.3462 23.1633 21.2969 22.9891 21.3179 22.9566L21.3221 22.9577Z" fill="#0DAC5C"/>
<path d="M10.2483 19.1629L9.46417 20.3713L10.6725 21.1554L11.4567 19.947L10.2483 19.1629Z" fill="#0DAC5C"/>
<path d="M11.9902 18.6004L11.2123 19.8104L12.4223 20.5883L13.2002 19.3783L11.9902 18.6004Z" fill="#0DAC5C"/>
<path d="M6.92286 12.5415L6.13874 13.7499L7.34711 14.534L8.13124 13.3256L6.92286 12.5415Z" fill="#0DAC5C"/>
<path d="M9.80452 24.4017L9.02039 25.61L10.2288 26.3942L11.0129 25.1858L9.80452 24.4017Z" fill="#0DAC5C"/>
<path d="M11.2583 23.9256L10.4741 25.1339L11.6825 25.9181L12.4666 24.7097L11.2583 23.9256Z" fill="#0DAC5C"/>
<path d="M18.9478 20.4052L20.027 21.3593L20.9811 20.2801L19.9019 19.326L18.9478 20.4052Z" fill="#0DAC5C"/>
<path d="M18.8259 18.4731L19.9051 19.4272L20.8592 18.348L19.78 17.3939L18.8259 18.4731Z" fill="#0DAC5C"/>
<path d="M32.0497 25.8208C31.4527 24.3006 30.5903 22.9356 29.6807 21.6368C28.7407 20.2876 27.7482 18.9782 26.8249 17.6143C25.5607 15.75 24.3248 13.8499 23.3627 11.7747C23.0826 11.1683 22.8245 10.5482 22.5947 9.90929C22.1278 8.60309 21.7407 7.23919 21.5686 5.83646C21.4092 4.53236 21.3714 3.14852 21.6536 1.84966C21.684 1.71013 21.7187 1.57164 21.7585 1.43C21.8634 1.24535 21.9579 1.05965 22.0575 0.872899C22.1625 0.663067 22.2768 0.458481 22.3849 0.249699C22.4186 0.163313 22.4593 0.0798062 22.5066 0C22.3343 0.194575 22.1853 0.408663 22.0628 0.637888C21.7239 1.24535 21.3787 1.8633 21.0829 2.49909C20.8412 3.04771 20.6831 3.62946 20.6139 4.22496C20.4355 5.5364 20.509 6.89611 20.7188 8.18762C20.8792 9.15606 21.116 10.1103 21.427 11.0413C22.0356 12.8284 22.8366 14.5441 23.8159 16.1581C24.5975 17.4727 25.4526 18.7317 26.3098 19.9854C27.232 21.3336 28.2329 22.6083 29.1425 23.9722C30.0175 25.27 30.8211 26.6507 31.3352 28.1835C31.7713 29.4926 32.0076 30.86 32.0361 32.2396C32.0655 33.604 31.9109 34.9662 31.5765 36.2893C31.4089 36.9554 31.1987 37.61 30.947 38.2491C30.8421 38.5272 30.7225 38.8031 30.5977 39.0748C29.1362 41.4784 27.084 43.4015 24.7088 44.586C21.9883 45.9426 18.9269 46.3696 16.0008 46.208C13.1481 46.0486 10.2839 45.2638 7.84985 43.6166C6.7923 42.9032 5.82392 42.0177 4.92584 41.0766C4.0704 40.1883 3.30531 39.2173 2.64183 38.1778C1.21027 35.8938 0.360482 33.2936 0.166866 30.605C0.110993 29.8369 0.0987325 29.0663 0.130145 28.2968C0.113758 28.344 0.0911786 28.3888 0.0629991 28.4301C-0.490956 35.7123 2.65022 42.4006 7.83306 45.9195C9.45394 46.8316 11.2236 47.4493 13.06 47.744C15.9137 48.2161 18.9594 48.0703 21.768 47.1617C23.1753 46.7072 24.5026 46.0345 25.7013 45.1683C26.7908 44.3766 27.7641 43.4361 28.5927 42.3744L28.6882 42.2527C29.7279 40.9035 30.5421 39.3444 31.3111 37.7927C31.9076 36.5859 32.3537 35.3104 32.6393 33.9948C33.2227 31.2607 33.0548 28.3724 32.0497 25.8208Z" fill="#0DAC5C"/>
<path d="M22.6839 36.0868C22.6734 35.8371 22.6377 37.7529 22.6839 37.2954C22.6839 37.2535 22.6902 37.2126 22.6954 37.1706C22.7038 37.1024 22.7143 37.0342 22.7279 36.966C22.7576 36.8199 22.7979 36.6761 22.8486 36.5359C22.9473 36.2652 23.0795 36.0079 23.242 35.77C23.5742 35.2852 24.0006 34.8724 24.4958 34.5561C25.6362 33.8217 27.0022 33.5846 28.2276 33.0359C29.2558 32.5753 30.2368 31.8388 30.6711 30.7655C30.7854 30.4896 30.8538 30.1969 30.8736 29.8989C30.9056 29.3191 30.9056 28.7381 30.8736 28.1583C30.8432 27.6243 30.4718 26.9529 29.837 27.126C29.2023 27.2991 28.7575 28.0576 28.5088 28.6084C28.1689 29.3617 28.1311 30.1318 28.1301 30.9449C28.1301 31.2596 28.0839 31.6174 28.1301 31.9311C28.1447 32.014 28.1364 31.8388 28.1364 31.8503C28.1364 31.6908 28.1364 31.5356 28.1364 31.3709C28.1364 32.0958 28.151 31.46 28.1794 31.2838C28.2024 31.1352 28.2339 30.9881 28.2738 30.8431C28.3577 30.531 28.4774 30.2297 28.6305 29.945C28.8813 29.4834 29.2894 28.8749 29.8276 28.728C29.953 28.6949 30.0851 28.6963 30.2098 28.7321C30.3344 28.768 30.4471 28.8369 30.5358 28.9316C30.63 29.0266 30.7051 29.1388 30.7571 29.262C30.7858 29.3269 30.8083 29.3944 30.8243 29.4635L30.84 29.5401C30.91 30.0297 30.917 29.6341 30.861 28.3535C30.7918 28.9615 30.5489 29.5366 30.1612 30.0101C28.5812 31.9836 25.7285 31.7664 23.9187 33.3873C23.4466 33.7985 23.0806 34.3175 22.8517 34.9002C22.7439 35.1903 22.6816 35.4954 22.6671 35.8046C22.6367 36.411 22.6419 37.0269 22.6671 37.6322C22.6671 37.7371 22.6744 37.5011 22.6734 37.5514C22.6734 37.392 22.6734 37.2367 22.6734 37.073C22.6734 36.7446 22.6828 36.4152 22.6734 36.0868H22.6839Z" fill="#0DAC5C"/>
<path d="M10.5084 12.2835C10.7864 11.9551 11.2481 12.1346 11.4527 12.4399C11.717 12.8238 11.7118 13.3243 11.6625 13.7681C11.6911 13.651 11.7315 13.5371 11.7831 13.4282C11.8333 13.3182 11.8716 13.2032 11.8975 13.0851C11.9468 12.6413 11.951 12.1409 11.6877 11.7558C11.4778 11.4516 11.0162 11.2711 10.7382 11.5995C10.7213 11.6326 10.7089 11.6679 10.7015 11.7044C10.6731 11.7852 10.6448 11.8649 10.6175 11.9457C10.5902 12.0265 10.5619 12.1073 10.5346 12.1881C10.5291 12.2243 10.5186 12.2597 10.5032 12.293L10.5084 12.2835Z" fill="#0DAC5C"/>
<path d="M27.1785 26.0988C27.7177 25.8628 28.1773 26.3611 28.2518 26.8626C28.3451 27.4921 28.0419 28.1059 27.7104 28.6221C27.7901 28.4962 27.958 28.3818 28.064 28.2758C28.1917 28.1712 28.3078 28.053 28.4102 27.9233C28.7375 27.4071 29.0449 26.7944 28.9516 26.1639C28.8781 25.6634 28.4186 25.164 27.8793 25.4011C27.8402 25.4297 27.8049 25.4632 27.7744 25.5008C27.6905 25.5816 27.6076 25.6645 27.5257 25.7463C27.4439 25.8282 27.36 25.911 27.2792 25.9939C27.253 26.0212 27.211 26.0852 27.1743 26.0988H27.1785Z" fill="#0DAC5C"/>
<path d="M14.449 36.7677C14.9883 36.5317 15.4478 37.03 15.5213 37.5315C15.6147 38.161 15.3115 38.7748 14.981 39.2909C15.0597 39.1661 15.2286 39.0507 15.3345 38.9458C15.4625 38.8422 15.5793 38.7255 15.6829 38.5975C16.0102 38.0813 16.3124 37.4686 16.2242 36.838C16.1497 36.3376 15.6912 35.8382 15.152 36.0753C15.1132 36.1042 15.0779 36.1377 15.0471 36.1749L14.7984 36.4205C14.7166 36.5033 14.6337 36.5852 14.5519 36.6691C14.5256 36.6953 14.4847 36.7593 14.4522 36.774L14.449 36.7677Z" fill="#0DAC5C"/>
<path d="M6.75663 27.7471C7.29589 27.511 7.75542 28.0094 7.82887 28.5109C7.92224 29.1403 7.61903 29.7541 7.2875 30.2703C7.36724 30.1454 7.53615 30.03 7.64107 29.9251C7.76894 29.8198 7.88535 29.7013 7.98834 29.5716C8.31567 29.0554 8.61783 28.4427 8.5297 27.8121C8.45521 27.3117 7.99673 26.8123 7.45641 27.0494C7.41754 27.0782 7.38231 27.1117 7.3515 27.149L7.10285 27.3945C7.01996 27.4774 6.93813 27.5593 6.85629 27.6432C6.83007 27.6694 6.78915 27.7334 6.75663 27.7481V27.7471Z" fill="#0DAC5C"/>
<path d="M9.86423 38.4243C9.63446 38.9657 8.95776 38.9174 8.56012 38.6048C8.05968 38.2093 7.86348 37.5556 7.74703 36.9524C7.77535 37.0982 7.73129 37.2975 7.7271 37.4465C7.70633 37.6108 7.70281 37.7767 7.7166 37.9417C7.83306 38.5408 8.03135 39.2007 8.5297 39.5931C8.92733 39.9078 9.60299 39.9551 9.8338 39.4126C9.84267 39.3649 9.84549 39.3163 9.84219 39.2679C9.84219 39.1514 9.85059 39.0349 9.85374 38.9185C9.85688 38.802 9.86108 38.6856 9.86318 38.5691C9.85686 38.5211 9.85686 38.4724 9.86318 38.4243H9.86423Z" fill="#0DAC5C"/>
<path d="M11.6268 13.7555C11.802 13.3862 12.0622 13.0673 12.2563 12.7063C12.3633 12.4828 12.4528 12.2513 12.5238 12.0139C12.6038 11.8163 12.6543 11.6082 12.6739 11.3959C12.6896 10.9668 12.4976 10.6038 12.2364 10.2775C12.0936 10.1241 11.9757 9.94918 11.887 9.75926C11.8232 9.56341 11.807 9.35516 11.8398 9.1518C11.8106 9.26906 11.7702 9.38324 11.7191 9.49278C11.6693 9.60253 11.631 9.71715 11.6048 9.8348C11.5785 10.0072 11.5849 10.183 11.6237 10.3531C11.6768 10.5212 11.7639 10.6765 11.8797 10.8095C12.1 11.0917 12.3203 11.355 12.4042 11.7128C12.4425 11.8782 12.4499 12.0493 12.4263 12.2174C12.42 12.2615 12.4095 12.3045 12.4 12.3486C12.3402 12.6235 12.6634 11.6834 12.5354 11.9384C12.4934 12.0233 12.4494 12.1052 12.4011 12.187C12.2248 12.4829 12.0171 12.7599 11.8692 13.0725C11.7643 13.2897 11.7359 13.5404 11.6331 13.7555H11.6268Z" fill="#0DAC5C"/>
<path d="M13.7167 29.9849C14.0231 29.5296 14.4375 29.1645 14.7659 28.7259C14.9176 28.5162 15.0355 28.284 15.1153 28.0377C15.2254 27.7229 15.3713 27.4019 15.43 27.0725C15.5213 26.5112 15.196 26.0537 14.8005 25.6928C14.6064 25.5134 14.3808 25.3393 14.2424 25.1105C14.1039 24.8818 14.106 24.586 14.1563 24.3237C14.0944 24.651 13.8877 24.9532 13.8258 25.2826C13.7346 25.7652 13.8741 26.0925 14.2235 26.4262C14.555 26.7409 14.9201 27.0273 15.0576 27.4827C15.0885 27.5824 15.1065 27.6857 15.1111 27.7901C15.1184 27.9768 14.9957 28.3409 15.195 27.7597C15.3943 27.1784 15.2537 27.5498 15.1404 27.7072C15.0754 27.7974 15.0061 27.8845 14.9306 27.9684C14.6347 28.322 14.3011 28.642 14.0441 29.026C13.958 29.154 13.9245 29.3596 13.8741 29.5044C13.8237 29.6492 13.7986 29.859 13.7136 29.9849H13.7167Z" fill="#0DAC5C"/>
<path d="M8.89271 8.52021C8.74478 8.85699 8.408 9.05738 8.06912 9.2116C7.69142 9.38262 7.31583 9.5316 7.02731 9.82956C6.7977 10.0659 6.63542 10.3593 6.55728 10.6794C6.49748 10.9301 6.46601 11.1882 6.42719 11.4411C6.39616 11.6102 6.38384 11.7823 6.39047 11.9541C6.40034 11.8182 6.42353 11.6836 6.45971 11.5523C6.49439 11.4209 6.5148 11.2862 6.52057 11.1504C6.52057 11.0791 6.52057 11.0078 6.52057 10.9406C6.53106 10.8032 6.51532 10.8913 6.4744 11.2029C6.41565 11.5176 6.40306 11.6005 6.43454 11.4652C6.44608 11.4243 6.45552 11.3834 6.46916 11.3424C6.51006 11.2193 6.56386 11.1007 6.62968 10.9889C6.77426 10.7453 6.9714 10.537 7.20671 10.3793C7.72395 10.0341 8.49718 9.93342 8.76366 9.33016C8.80247 9.1994 8.82572 9.06453 8.83291 8.92833C8.84865 8.83391 8.86334 8.73948 8.87802 8.64401C8.87893 8.60438 8.8842 8.56497 8.89376 8.5265L8.89271 8.52021Z" fill="#0DAC5C"/>
<path d="M22.878 38.6499C22.5339 38.5177 22.3188 38.1925 22.1488 37.8609C21.9589 37.4906 21.7931 37.1265 21.4815 36.8485C21.2344 36.631 20.9339 36.4833 20.6107 36.4204C20.3569 36.3722 20.0977 36.3523 19.8428 36.326C19.6727 36.3033 19.5006 36.2995 19.3297 36.3145C19.4657 36.3176 19.601 36.3341 19.7337 36.3638C19.8667 36.3923 20.0025 36.4063 20.1386 36.4058C20.2089 36.3974 20.2803 36.3963 20.3485 36.3942C20.4859 36.3942 20.3978 36.3879 20.0851 36.3606C19.7711 36.3173 19.6829 36.3082 19.8207 36.3334C19.8617 36.3428 19.9036 36.3512 19.9445 36.3627C20.0699 36.3968 20.191 36.4451 20.3054 36.5065C20.5558 36.639 20.7734 36.8257 20.9423 37.0531C21.3116 37.5535 21.449 38.3215 22.0659 38.5586C22.1986 38.5906 22.3344 38.6075 22.4709 38.609L22.7563 38.6394C22.7961 38.6386 22.8358 38.6422 22.8748 38.6499H22.878Z" fill="#0DAC5C"/>
<path d="M19.4284 30.7875C19.5333 31.1495 19.612 31.5219 19.6917 31.8944C19.7642 32.2056 19.8178 32.5209 19.8522 32.8386C19.9091 33.446 19.8486 34.0587 19.6739 34.6432C19.5621 35.054 19.3481 35.4297 19.0517 35.7353C18.7453 36.0239 18.2785 36.155 17.9113 35.9252C17.6773 35.7805 17.585 35.5465 17.5241 35.2832C17.458 34.9915 17.3919 34.6998 17.3353 34.4061C17.3056 34.2786 17.3031 34.1464 17.3279 34.0179C17.335 34.0715 17.3476 34.1243 17.3657 34.1753C17.3951 34.3022 17.4234 34.4302 17.4507 34.5571C17.478 34.6841 17.5063 34.8121 17.5325 34.9401C17.5512 34.9913 17.5615 35.0451 17.563 35.0996C17.5434 35.1934 17.5395 35.2898 17.5514 35.3849L17.5378 35.3104C17.2356 33.7944 17.2818 34.6809 17.7717 34.8908C17.9514 34.9636 18.1497 34.9765 18.3372 34.9275C18.7023 34.8341 18.9751 34.5246 19.1629 34.1983C19.3729 33.8154 19.5122 33.3978 19.5742 32.9656C19.6212 32.6743 19.6415 32.3793 19.635 32.0843C19.635 31.9374 19.6224 31.7905 19.6057 31.6447C19.5973 31.566 19.5836 31.4884 19.5731 31.4107C19.5277 31.1428 19.5759 31.359 19.7179 32.0591C19.7011 31.9948 19.6833 31.9308 19.6644 31.8671C19.5595 31.5156 19.5333 31.1327 19.4284 30.7865V30.7875Z" fill="#0DAC5C"/>
<path d="M18.6635 22.7971C18.8104 23.05 18.9342 23.3217 19.0611 23.583C19.1719 23.803 19.269 24.0297 19.3518 24.2618C19.5029 24.7081 19.567 25.1793 19.5406 25.6498C19.5312 25.9791 19.4377 26.3006 19.2689 26.5835C19.0905 26.8553 18.7632 27.0368 18.4463 26.9308C18.2449 26.8637 18.1316 26.7053 18.0403 26.5175C17.9354 26.3076 17.8305 26.103 17.7403 25.888C17.6948 25.7979 17.669 25.6992 17.6647 25.5984C17.6806 25.6369 17.6995 25.6741 17.7214 25.7096C17.7665 25.7998 17.8105 25.8901 17.8546 25.9813C17.8987 26.0726 17.9417 26.1628 17.9847 26.2541C18.0074 26.2895 18.0247 26.328 18.0361 26.3685C18.0377 26.4428 18.0523 26.5163 18.0791 26.5856L18.055 26.5321C17.5556 25.4463 17.7497 26.1072 18.1599 26.1765C18.3079 26.1988 18.4592 26.1726 18.5911 26.102C18.8482 25.9666 18.9982 25.6823 19.0811 25.4064C19.1702 25.0807 19.1997 24.7417 19.1682 24.4055C19.1513 24.178 19.1137 23.9526 19.0559 23.7319C19.0276 23.6218 18.994 23.5127 18.951 23.4067C18.93 23.349 18.9059 23.2934 18.8838 23.2357C18.802 23.0437 18.8775 23.1969 19.1094 23.6984C19.0853 23.6522 19.0601 23.6071 19.0349 23.563C18.8922 23.3175 18.8051 23.0384 18.6625 22.7929L18.6635 22.7971Z" fill="#0DAC5C"/>
<path d="M2.43619 35.1541C2.56734 34.7607 2.70688 34.3704 2.83173 33.9728C2.923 33.679 2.99854 33.3758 3.07198 33.0747C3.12423 32.8993 3.14064 32.7152 3.12024 32.5333C3.06569 32.1881 2.8055 32.0213 2.57049 31.8807C2.3103 31.7366 2.08807 31.5327 1.92211 31.2859C1.71599 30.9615 1.59976 30.5882 1.58533 30.2042C1.57799 30.2425 1.5671 30.2801 1.5528 30.3165L1.48041 30.5892C1.45628 30.6805 1.43215 30.7707 1.40907 30.8631C1.39483 30.8994 1.38565 30.9375 1.38179 30.9764C1.40592 31.5733 1.67765 32.1514 2.09627 32.4767C2.29351 32.6288 2.52327 32.7127 2.70583 32.8963C2.9314 33.1208 2.95028 33.4209 2.89258 33.743C2.94834 33.5682 2.99492 33.3907 3.03212 33.2111C3.02372 33.2363 3.01638 33.2614 3.00799 33.2866L2.94503 33.4765L2.84012 33.7724L2.63029 34.3851C2.54636 34.6348 2.50963 34.9097 2.42675 35.1573L2.43619 35.1541Z" fill="#0DAC5C"/>
<path d="M23.8201 29.3848C23.9523 28.9914 24.0919 28.6 24.2157 28.2024C24.3069 27.9097 24.3825 27.6065 24.457 27.3054C24.5084 27.1298 24.5244 26.9458 24.5042 26.764C24.4496 26.4188 24.1894 26.251 23.9544 26.1104C23.6942 25.9667 23.472 25.7631 23.306 25.5166C23.0999 25.1918 22.9833 24.8182 22.9682 24.4338C22.9612 24.4721 22.9507 24.5097 22.9367 24.5461C22.9116 24.6374 22.8874 24.7276 22.8633 24.8189C22.8392 24.9101 22.8161 25.0004 22.793 25.0916C22.779 25.1285 22.7695 25.1669 22.7647 25.206C22.7898 25.803 23.0616 26.38 23.4812 26.7063C23.6774 26.8584 23.9072 26.9424 24.0898 27.126C24.3153 27.3494 24.3342 27.6505 24.2776 27.9726C24.333 27.7979 24.3793 27.6203 24.416 27.4407C24.4076 27.4659 24.4003 27.4911 24.3919 27.5163C24.372 27.5792 24.3499 27.6422 24.329 27.7062L24.224 28.002L24.0142 28.6147C23.9313 28.8644 23.8946 29.1393 23.8107 29.3869L23.8201 29.3848Z" fill="#0DAC5C"/>
<path d="M19.1052 45.2827C19.5154 45.2218 19.9277 45.1683 20.338 45.0991C20.6412 45.0477 20.9454 44.9774 21.2476 44.906C21.4273 44.8724 21.5986 44.8032 21.7512 44.7025C22.0345 44.4927 22.0659 44.1905 22.0838 43.9156C22.0928 43.6186 22.1735 43.3282 22.3188 43.069C22.5138 42.7378 22.7933 42.4644 23.1287 42.2768C23.0913 42.2878 23.0531 42.2955 23.0144 42.2999L22.7384 42.3587L22.4625 42.4195C22.4235 42.4239 22.3852 42.4327 22.3482 42.4458C21.8236 42.7395 21.4364 43.2431 21.3368 43.7645C21.2896 44.009 21.32 44.2514 21.2413 44.499C21.1448 44.8011 20.8814 44.9574 20.573 45.0498C20.754 45.02 20.9333 44.9808 21.1101 44.9323L21.0325 44.9448L20.8342 44.9753L20.5195 45.0214L19.8805 45.1159C19.6203 45.1547 19.356 45.247 19.1 45.2848L19.1052 45.2827Z" fill="#0DAC5C"/>
<path d="M15.2779 11.4064C14.9075 9.88201 15.708 8.55273 16.3019 7.60115C16.6397 7.06083 16.9954 6.51946 17.2346 5.84276C17.3528 5.51452 17.4327 5.17374 17.4727 4.82717C17.4917 4.653 17.4983 4.47771 17.4927 4.30259C17.4927 4.22391 17.4832 4.14417 17.4738 4.06549C17.4685 4.01303 17.4601 3.96057 17.4517 3.90916C17.3818 3.54895 17.4577 3.78886 17.6794 4.62888C17.5745 4.2963 17.4454 3.80739 17.3647 3.54615C17.6186 4.34876 17.9186 5.14402 17.7896 6.06413C17.671 6.9171 17.3164 7.59905 16.9502 8.20126C16.3144 9.25986 15.1667 10.7266 15.5968 12.4818C15.5307 12.2069 15.3618 11.7474 15.2768 11.4012L15.2779 11.4064Z" fill="#0DAC5C"/>
<path d="M15.7028 12.7966C15.6981 12.8795 15.7041 12.9627 15.7206 13.0442L15.7007 12.9665L15.7164 13.0232L15.4069 11.974C15.5968 12.4892 15.9997 12.4315 16.1854 11.974C16.4278 11.3729 16.2505 10.6311 16.0889 10.0257C16.1613 10.2975 16.3176 10.7602 16.4099 11.1053C16.5243 11.5355 16.6491 11.994 16.6355 12.4692C16.6239 12.8585 16.5022 13.2876 16.2714 13.4313C16.071 13.5562 15.8413 13.3914 15.7343 13.0882C15.6293 12.806 15.5549 12.4955 15.4688 12.1996C15.4069 12.0316 15.3742 11.8541 15.3723 11.675C15.3855 11.7303 15.4023 11.7846 15.4227 11.8376C15.4625 11.9688 15.5014 12.101 15.5412 12.2332C15.5811 12.3654 15.6189 12.4976 15.6566 12.6298C15.6785 12.6833 15.694 12.7393 15.7028 12.7966Z" fill="#0DAC5C"/>
<path d="M24.6878 19.7483C24.4202 20.7439 25.0833 21.5959 25.5743 22.2054C25.8534 22.5506 26.1471 22.8979 26.3507 23.3343C26.4507 23.5421 26.5214 23.7628 26.5605 23.99C26.579 24.1017 26.5874 24.2147 26.5857 24.3279C26.5848 24.3794 26.5813 24.4309 26.5752 24.4821C26.5752 24.5167 26.5668 24.5503 26.5605 24.587C26.5109 24.822 26.5672 24.665 26.7294 24.1159C26.6518 24.3342 26.5574 24.6531 26.4965 24.8241C26.6843 24.2995 26.9088 23.775 26.7892 23.1811C26.678 22.6282 26.3832 22.1918 26.0832 21.8046C25.5586 21.1269 24.6143 20.191 24.9291 19.0443C24.8808 19.2237 24.7549 19.5227 24.693 19.7514L24.6878 19.7483Z" fill="#0DAC5C"/>
<path d="M4.32048 32.1472C4.39332 33.0622 4.77171 33.9262 5.39482 34.6002C6.09041 35.3556 6.99688 35.7332 7.99253 35.9095C9.03015 36.0921 10.1276 36.1141 11.0917 36.581C11.8611 36.965 12.4956 37.5738 12.911 38.3268C13.1477 38.7458 13.3162 39.1998 13.4104 39.6718C13.4324 39.784 13.4502 39.8974 13.4639 40.0107C13.4723 40.0841 13.4786 40.1565 13.4828 40.2299C13.5216 40.8091 13.5205 38.481 13.4828 39.0759C13.4669 39.3364 13.4251 39.5947 13.3579 39.847C13.3479 39.927 13.3461 40.0079 13.3527 40.0883C13.3527 40.2834 13.3527 40.4775 13.3527 40.6727C13.3527 40.8678 13.3527 41.0619 13.3527 41.256C13.3638 41.3363 13.3655 41.4177 13.3579 41.4984C13.5321 40.8343 13.5006 40.146 13.4985 39.4651C13.4985 38.9059 13.4985 38.3551 13.3621 37.8095C13.1363 36.9014 12.6336 36.086 11.9237 35.4762C11.0844 34.7628 10.0426 34.5487 8.97769 34.404C7.85929 34.2518 6.73564 34.0892 5.83022 33.3611C5.39765 33.0113 5.04068 32.5772 4.78097 32.0852C4.52127 31.5932 4.36424 31.0535 4.31943 30.499C4.36035 31.0446 4.27747 31.6017 4.31943 32.1493L4.32048 32.1472Z" fill="#0DAC5C"/>
<path d="M22.6587 38.0729C24.7906 37.7067 26.9602 37.9186 29.1058 37.6595C29.367 37.628 29.6304 37.5903 29.8853 37.543C30.0647 37.5095 30.5148 37.5011 30.5914 37.3017C30.6129 37.2043 30.6182 37.104 30.6071 37.0048C30.6071 36.7593 30.6071 36.5138 30.6071 36.2704C30.6071 35.9032 30.6071 35.536 30.5819 35.1688C30.5466 34.6363 30.4683 34.1076 30.348 33.5877C30.3396 33.5531 30.2913 33.2562 30.2619 33.2488C30.2326 33.2415 30.0196 33.424 29.9923 33.4419C29.7961 33.5699 29.5915 33.6842 29.3859 33.7965C28.9785 33.9979 28.589 34.2334 28.2213 34.5005C27.8627 34.7902 27.5692 35.1524 27.36 35.5633C26.8941 36.4488 26.742 37.4518 26.3486 38.3656C26.0204 39.1287 25.4485 39.7614 24.7224 40.1649C24.053 40.5373 23.1203 40.7325 22.4741 40.2058C22.1541 39.9446 21.8886 39.6067 21.5896 39.3203C21.2906 39.0339 20.979 38.7118 20.6622 38.4191C20.0494 37.8546 19.3066 37.308 18.4432 37.2566C17.6668 37.2094 16.9744 37.6385 16.5547 38.2775C15.9347 39.229 16.0396 40.4093 16.0511 41.4921C16.0606 42.3881 16.2683 43.2756 16.8516 43.9828C17.107 44.2964 17.4262 44.5522 17.7879 44.733C18.1497 44.9139 18.5458 45.0158 18.9499 45.0319C19.3394 45.0416 19.7243 44.946 20.064 44.7552C20.4038 44.5645 20.6858 44.2857 20.8804 43.9482C21.0553 43.6429 21.1516 43.299 21.1605 42.9473C21.1762 42.4825 21.1679 42.0146 21.1605 41.5487C21.1673 41.3309 21.1444 41.1131 21.0923 40.9014C20.8594 40.0956 19.9487 39.5029 19.1167 39.7012C18.3309 39.8879 17.8735 40.6769 17.286 41.17C16.1319 42.131 14.2791 41.4081 13.6968 40.1261C13.5425 39.7755 13.4587 39.398 13.4502 39.015C13.4502 38.9101 13.4429 39.1472 13.445 39.0958C13.445 39.2553 13.445 39.4105 13.445 39.5742C13.445 39.9026 13.4398 40.232 13.445 40.5604C13.4649 41.1553 13.6192 41.7397 13.9885 42.216C14.3651 42.6827 14.8894 43.0073 15.4751 43.1361C16.0616 43.2767 16.6428 43.241 17.1412 42.8843C17.6395 42.5276 17.9973 41.9894 18.4894 41.6148C18.7697 41.3992 19.1135 41.2824 19.4672 41.2824C19.8208 41.2824 20.1646 41.3992 20.445 41.6148C20.7194 41.8106 20.9305 42.0822 21.0524 42.3964C21.081 42.4718 21.1035 42.5493 21.1196 42.6283C21.1259 42.6577 21.129 42.6881 21.1353 42.7164V42.7458C21.1647 43.0256 21.1675 42.8228 21.1437 42.1373V41.469L21.1364 41.5592C21.1311 41.598 21.1269 41.6379 21.1196 41.6767C21.1058 41.7554 21.0872 41.8332 21.064 41.9096C20.659 43.2368 19.1881 43.7446 17.9658 43.2274C17.3363 42.9558 16.8181 42.4777 16.497 41.8719C16.3256 41.553 16.2015 41.2109 16.1287 40.8563C16.0926 40.6759 16.0684 40.4933 16.0564 40.3097C16.0207 39.804 16.028 41.725 16.0564 41.4931C16.0637 41.4312 16.0637 41.3672 16.07 41.3053C16.0794 41.2098 16.0931 41.1144 16.1109 41.02C16.348 39.7421 17.4119 38.6069 18.7989 38.9216C19.484 39.0801 20.0662 39.4966 20.5824 39.9603C21.0986 40.424 21.6127 40.9182 22.0817 41.4291C22.3072 41.6757 22.5412 41.9275 22.8633 42.0408C23.1643 42.1413 23.4857 42.1648 23.7981 42.109C24.4538 42.0041 25.0571 41.6285 25.5271 41.1721C26.6686 40.0684 26.6686 38.4034 27.4156 37.0804C27.8017 36.3921 28.3808 35.9599 29.0617 35.5885C29.3869 35.4112 29.7174 35.2433 30.0248 35.0377C30.0773 35.003 30.1738 34.896 30.2347 34.8876L30.264 34.8656C30.2756 34.9076 30.2871 34.9495 30.2976 34.9925L30.3291 35.1195C30.3847 35.3451 30.434 35.5738 30.4697 35.8035C30.5033 36.0039 30.5305 36.2064 30.5515 36.4089C30.5662 36.5443 30.5767 36.6796 30.5851 36.8149C30.5851 36.859 30.5903 36.902 30.5914 36.9461V36.9891C30.6082 37.4724 30.6082 37.1055 30.5914 35.8885L30.5977 35.6535C30.5704 35.8193 30.4571 35.8361 30.3123 35.8686C30.1402 35.9085 29.9671 35.942 29.794 35.9735C29.4646 36.0312 29.131 36.0784 28.7984 36.1088C28.1175 36.177 27.4345 36.2022 26.7494 36.219C25.3855 36.2526 24.0079 36.2557 22.6577 36.4886C22.6293 36.4886 22.6503 37.2231 22.6503 37.2892C22.6503 37.3552 22.6734 38.0886 22.6577 38.0907L22.6587 38.0729Z" fill="#0DAC5C"/>
<path d="M27.2876 39.3172C27.2802 39.2862 27.276 39.2546 27.275 39.2227C27.275 39.2091 27.275 39.1955 27.275 39.1818V39.1346L27.2068 39.4189C27.2261 39.3555 27.2574 39.2964 27.2991 39.2448C27.3421 39.195 27.3946 39.1543 27.4535 39.1251C27.5124 39.096 27.5766 39.0788 27.6422 39.0748C27.7875 39.0717 27.9328 39.0759 28.0776 39.0874C28.2155 39.0913 28.3522 39.0595 28.4742 38.9951C28.6073 38.9227 28.7166 38.8134 28.7889 38.6803C28.795 38.6648 28.7993 38.6486 28.8015 38.6321C28.812 38.5922 28.8215 38.5523 28.8309 38.5125L28.8592 38.3939C28.8609 38.3771 28.8644 38.3606 28.8697 38.3446C28.7974 38.4777 28.6881 38.587 28.555 38.6593C28.4192 38.731 28.2665 38.764 28.1133 38.7548C27.9545 38.7344 27.7937 38.7344 27.6349 38.7548C27.5639 38.7701 27.4976 38.8016 27.4409 38.847C27.3843 38.8923 27.339 38.9502 27.3086 39.0161C27.2593 39.1419 27.2241 39.2728 27.2037 39.4063C27.1808 39.4884 27.1772 39.5745 27.1932 39.6581C27.1959 39.6416 27.2005 39.6254 27.2068 39.6099C27.2162 39.57 27.2257 39.5302 27.2362 39.4903C27.2467 39.4504 27.2551 39.4116 27.2635 39.3717C27.2698 39.3556 27.2737 39.3386 27.275 39.3214L27.2876 39.3172Z" fill="#0DAC5C"/>
<path d="M27.1869 39.7033L27.617 39.784C27.7447 39.8148 27.8765 39.8247 28.0073 39.8134C28.1216 39.8011 28.2271 39.7464 28.3032 39.6603C28.3347 39.6222 28.3576 39.5779 28.3703 39.5302C28.4028 39.4147 28.4333 39.2962 28.4543 39.1776C28.4543 39.1556 28.4459 39.2039 28.448 39.1944C28.4396 39.228 28.4312 39.2616 28.4238 39.2993C28.407 39.3675 28.3871 39.4368 28.3745 39.5092V39.5207L28.448 39.2133C28.3913 39.4179 28.1615 39.4955 27.9706 39.4903C27.8603 39.4809 27.7508 39.4631 27.6433 39.4368L27.2687 39.3654C27.2603 39.3654 27.19 39.7022 27.1869 39.7022V39.7033Z" fill="#0DAC5C"/>
<path d="M28.4574 39.1692C28.4028 39.3791 28.1857 39.4966 28.0042 39.5732C27.8088 39.6445 27.6217 39.7367 27.446 39.848C27.2734 39.9647 27.1328 40.1227 27.0368 40.3076C26.9845 40.4286 26.9451 40.5549 26.9193 40.6842C26.8822 40.8098 26.861 40.9395 26.8564 41.0703C26.8597 41.2553 26.9315 41.4325 27.0578 41.5676C27.129 41.6396 27.2158 41.6943 27.3115 41.7274C27.4072 41.7606 27.5092 41.7712 27.6097 41.7586C27.9979 41.7197 28.3378 41.4711 28.577 41.1742C28.8917 40.7786 29.0491 40.2845 29.2002 39.8103C29.2212 39.7431 29.2348 39.6728 29.2516 39.6004C29.2589 39.5669 29.2673 39.5333 29.2747 39.4955C29.2747 39.4955 29.282 39.463 29.2747 39.4787C29.1404 39.8984 29.004 40.3349 28.7501 40.7031C28.5504 41.0148 28.2519 41.2505 27.9024 41.3725C27.7087 41.443 27.4953 41.4363 27.3065 41.3536C27.1527 41.2708 27.0356 41.1334 26.9781 40.9685C26.9473 40.8806 26.9323 40.7879 26.934 40.6947C26.934 40.6695 26.934 40.6444 26.9393 40.6192C26.9445 40.594 26.9445 40.5846 26.9477 40.5667V40.5583C26.9665 40.4628 26.9477 40.5468 26.8868 40.808C26.9029 40.7558 26.9222 40.7047 26.9445 40.6548C27.0346 40.4729 27.1683 40.3161 27.3337 40.1985C27.522 40.0756 27.7237 39.9745 27.9349 39.8974C28.1447 39.8092 28.3252 39.6812 28.385 39.4546C28.4049 39.3791 28.4228 39.3014 28.4417 39.2248C28.4417 39.207 28.4647 39.1629 28.4584 39.1472C28.4522 39.1315 28.4584 39.1472 28.4532 39.164L28.4574 39.1692Z" fill="#0DAC5C"/>
<path d="M41.133 32.0063L46.373 18.0063H49.113L54.333 32.0063H51.873L50.553 28.5463H44.813L43.513 32.0063H41.133ZM45.453 26.5863H49.913L47.673 20.4863L45.453 26.5863Z" fill="white"/>
<path d="M55.7203 23.6663H53.9403V21.7663H55.7203V18.9063H57.9003V21.7663H60.3603V23.6663H57.9003V29.0063C57.9003 29.4063 57.9803 29.7063 58.1403 29.8663C58.3003 30.0263 58.5603 30.1063 58.9603 30.1063H60.6003V32.0063H58.5203C57.5403 32.0063 56.8203 31.7863 56.3803 31.3263C55.9403 30.8863 55.7203 30.1863 55.7203 29.2263V23.6663Z" fill="white"/>
<path d="M61.1903 27.2063V25.4463H67.9903V27.2063H61.1903Z" fill="white"/>
<path d="M67.8006 18.0063H78.7406V20.0463H74.4206V32.0063H72.1206V20.0463H67.8006V18.0063Z" fill="white"/>
<path d="M88.6494 30.1263V32.0063H87.5094C86.8294 32.0063 86.3494 31.8663 86.0694 31.5863C85.7694 31.3063 85.6294 30.9063 85.6294 30.3663C84.8494 31.5463 83.7294 32.1263 82.2494 32.1263C81.0894 32.1263 80.1694 31.8663 79.4894 31.3263C78.7894 30.8063 78.4494 30.0663 78.4494 29.1263C78.4494 28.0863 78.8094 27.2663 79.5694 26.7063C80.3094 26.1463 81.3894 25.8463 82.8294 25.8463H85.4094V25.2263C85.4094 24.6663 85.2094 24.2063 84.8094 23.8863C84.4094 23.5663 83.8494 23.3863 83.1494 23.3863C82.5094 23.3863 81.9894 23.5263 81.5894 23.8063C81.1894 24.0863 80.9494 24.4463 80.8694 24.8863H78.7494C78.8494 23.8663 79.3094 23.0663 80.1094 22.5063C80.9094 21.9463 81.9494 21.6463 83.2494 21.6463C84.6094 21.6463 85.6694 21.9663 86.4294 22.6063C87.1694 23.2463 87.5494 24.1663 87.5494 25.3663V29.4063C87.5494 29.8863 87.7694 30.1263 88.2294 30.1263H88.6494ZM85.4094 27.4463H82.7294C82.0494 27.4463 81.5494 27.5863 81.1894 27.8463C80.8294 28.1063 80.6494 28.4863 80.6494 28.9863C80.6494 29.4263 80.8094 29.7863 81.1494 30.0463C81.4894 30.3263 81.9494 30.4463 82.5494 30.4463C83.4294 30.4463 84.1294 30.2063 84.6294 29.7263C85.1294 29.2463 85.3894 28.6063 85.4094 27.8063V27.4463Z" fill="white"/>
<path d="M89.8259 18.0063H91.9859V32.0063H89.8259V18.0063Z" fill="white"/>
<path d="M104.043 21.7663V36.0063H101.883V30.4863C101.063 31.5863 99.9633 32.1263 98.5633 32.1263C97.6233 32.1263 96.7833 31.9263 96.0633 31.5063C95.3233 31.0863 94.7433 30.4863 94.3433 29.6863C93.9233 28.9063 93.7233 27.9663 93.7233 26.8863C93.7233 25.8663 93.9233 24.9663 94.3433 24.1663C94.7633 23.3663 95.3433 22.7463 96.0833 22.3063C96.8033 21.8663 97.6433 21.6463 98.5633 21.6463C99.3233 21.6463 100.003 21.8063 100.563 22.0863C101.123 22.3663 101.583 22.7463 101.923 23.2263L102.163 21.7663H104.043ZM101.083 29.3663C101.623 28.7263 101.903 27.9063 101.903 26.9063C101.903 25.9063 101.623 25.0863 101.083 24.4463C100.523 23.8063 99.8033 23.4863 98.9233 23.4863C98.0233 23.4863 97.3033 23.8063 96.7633 24.4263C96.2033 25.0663 95.9433 25.8863 95.9433 26.8863C95.9433 27.9063 96.2033 28.7263 96.7633 29.3663C97.3033 30.0063 98.0233 30.3063 98.9233 30.3063C99.8033 30.3063 100.523 30.0063 101.083 29.3663Z" fill="white"/>
<path d="M106.394 24.1463C106.814 23.3463 107.394 22.7463 108.154 22.3063C108.914 21.8663 109.774 21.6463 110.754 21.6463C111.734 21.6463 112.594 21.8463 113.354 22.2463C114.114 22.6463 114.694 23.2263 115.134 23.9463C115.574 24.6863 115.794 25.5463 115.814 26.5263C115.814 26.8063 115.794 27.0663 115.754 27.3463H108.034V27.4663C108.074 28.3663 108.354 29.0663 108.874 29.5863C109.374 30.1063 110.054 30.3663 110.894 30.3663C111.554 30.3663 112.114 30.2263 112.574 29.9063C113.014 29.5863 113.314 29.1463 113.474 28.5663H115.634C115.434 29.6063 114.934 30.4663 114.114 31.1263C113.294 31.8063 112.274 32.1263 111.054 32.1263C109.974 32.1263 109.054 31.9263 108.254 31.4863C107.454 31.0463 106.854 30.4463 106.414 29.6463C105.974 28.8663 105.774 27.9463 105.774 26.9063C105.774 25.8663 105.974 24.9463 106.394 24.1463ZM113.614 25.7663C113.514 25.0263 113.214 24.4463 112.714 24.0263C112.214 23.6063 111.594 23.3863 110.834 23.3863C110.114 23.3863 109.514 23.6063 108.994 24.0463C108.474 24.4863 108.194 25.0463 108.114 25.7663H113.614Z" fill="white"/>
<path d="M117.8 24.1463C118.22 23.3463 118.8 22.7463 119.56 22.3063C120.32 21.8663 121.18 21.6463 122.16 21.6463C123.14 21.6463 124 21.8463 124.76 22.2463C125.52 22.6463 126.1 23.2263 126.54 23.9463C126.98 24.6863 127.2 25.5463 127.22 26.5263C127.22 26.8063 127.2 27.0663 127.16 27.3463H119.44V27.4663C119.48 28.3663 119.76 29.0663 120.28 29.5863C120.78 30.1063 121.46 30.3663 122.3 30.3663C122.96 30.3663 123.52 30.2263 123.98 29.9063C124.42 29.5863 124.72 29.1463 124.88 28.5663H127.04C126.84 29.6063 126.34 30.4663 125.52 31.1263C124.7 31.8063 123.68 32.1263 122.46 32.1263C121.38 32.1263 120.46 31.9263 119.66 31.4863C118.86 31.0463 118.26 30.4463 117.82 29.6463C117.38 28.8663 117.18 27.9463 117.18 26.9063C117.18 25.8663 117.38 24.9463 117.8 24.1463ZM125.02 25.7663C124.92 25.0263 124.62 24.4463 124.12 24.0263C123.62 23.6063 123 23.3863 122.24 23.3863C121.52 23.3863 120.92 23.6063 120.4 24.0463C119.88 24.4863 119.6 25.0463 119.52 25.7663H125.02Z" fill="white"/>
<path d="M137.327 22.7663C138.087 23.5263 138.487 24.7263 138.487 26.3663V32.0063H136.307V26.4863C136.307 25.5263 136.087 24.7863 135.687 24.2663C135.267 23.7663 134.667 23.5063 133.867 23.5063C133.007 23.5063 132.327 23.8063 131.847 24.4063C131.367 25.0063 131.127 25.8063 131.127 26.8463V32.0063H128.967V21.7663H130.847L131.087 23.1063C131.847 22.1463 132.947 21.6463 134.367 21.6463C135.567 21.6463 136.567 22.0263 137.327 22.7663Z" fill="white"/>
<path d="M145.788 18.0063H148.088V32.0063H145.788V18.0063Z" fill="white"/>
<path d="M158.791 22.7663C159.551 23.5263 159.951 24.7263 159.951 26.3663V32.0063H157.771V26.4863C157.771 25.5263 157.551 24.7863 157.151 24.2663C156.731 23.7663 156.131 23.5063 155.331 23.5063C154.471 23.5063 153.791 23.8063 153.311 24.4063C152.831 25.0063 152.591 25.8063 152.591 26.8463V32.0063H150.431V21.7663H152.311L152.551 23.1063C153.311 22.1463 154.411 21.6463 155.831 21.6463C157.031 21.6463 158.031 22.0263 158.791 22.7663Z" fill="white"/>
<path d="M163.636 28.6263C163.676 29.1663 163.916 29.6063 164.376 29.9463C164.836 30.2863 165.436 30.4463 166.176 30.4463C166.816 30.4463 167.356 30.3263 167.756 30.0863C168.156 29.8463 168.376 29.5063 168.376 29.0863C168.376 28.7463 168.276 28.4863 168.096 28.3063C167.896 28.1463 167.656 28.0263 167.336 27.9463C167.016 27.8663 166.536 27.7863 165.896 27.7063C164.996 27.6063 164.256 27.4663 163.676 27.2863C163.096 27.1063 162.636 26.8263 162.276 26.4263C161.916 26.0263 161.756 25.5063 161.756 24.8263C161.756 24.2063 161.916 23.6463 162.276 23.1663C162.636 22.6863 163.116 22.3063 163.736 22.0263C164.356 21.7663 165.056 21.6263 165.856 21.6263C167.136 21.6263 168.196 21.9263 168.996 22.4863C169.796 23.0663 170.236 23.8663 170.316 24.9063H168.216C168.156 24.4463 167.916 24.0663 167.516 23.7663C167.096 23.4663 166.576 23.3063 165.956 23.3063C165.316 23.3063 164.816 23.4263 164.436 23.6663C164.036 23.9063 163.856 24.2463 163.856 24.6463C163.856 24.9663 163.936 25.1863 164.136 25.3463C164.336 25.5063 164.576 25.6063 164.876 25.6663C165.156 25.7263 165.636 25.7863 166.296 25.8663C167.176 25.9663 167.916 26.1063 168.516 26.3063C169.116 26.5063 169.596 26.8063 169.956 27.2263C170.316 27.6463 170.496 28.2063 170.496 28.9263C170.496 29.5663 170.296 30.1463 169.936 30.6263C169.556 31.1063 169.036 31.4863 168.396 31.7463C167.736 32.0063 166.996 32.1263 166.196 32.1263C164.816 32.1263 163.696 31.8263 162.856 31.2063C162.016 30.5863 161.576 29.7263 161.556 28.6263H163.636Z" fill="white"/>
<path d="M172.908 23.6663H171.128V21.7663H172.908V18.9063H175.088V21.7663H177.548V23.6663H175.088V29.0063C175.088 29.4063 175.168 29.7063 175.328 29.8663C175.488 30.0263 175.748 30.1063 176.148 30.1063H177.788V32.0063H175.708C174.728 32.0063 174.008 31.7863 173.568 31.3263C173.128 30.8863 172.908 30.1863 172.908 29.2263V23.6663Z" fill="white"/>
<path d="M180.967 18.0463C181.207 18.2863 181.347 18.6063 181.347 18.9663C181.347 19.3463 181.207 19.6663 180.967 19.9063C180.707 20.1463 180.387 20.2663 180.027 20.2663C179.647 20.2663 179.327 20.1463 179.087 19.9063C178.827 19.6663 178.707 19.3463 178.707 18.9663C178.707 18.6063 178.827 18.2863 179.087 18.0463C179.327 17.8063 179.647 17.6663 180.027 17.6663C180.387 17.6663 180.707 17.8063 180.967 18.0463ZM178.947 21.7663H181.107V32.0063H178.947V21.7663Z" fill="white"/>
<path d="M183.884 23.6663H182.104V21.7663H183.884V18.9063H186.064V21.7663H188.524V23.6663H186.064V29.0063C186.064 29.4063 186.144 29.7063 186.304 29.8663C186.464 30.0263 186.724 30.1063 187.124 30.1063H188.764V32.0063H186.684C185.704 32.0063 184.984 31.7863 184.544 31.3263C184.104 30.8863 183.884 30.1863 183.884 29.2263V23.6663Z" fill="white"/>
<path d="M199.104 21.7663V32.0063H197.204L196.964 30.7063C196.184 31.6663 195.124 32.1263 193.804 32.1263C192.604 32.1263 191.624 31.7663 190.884 31.0063C190.124 30.2663 189.764 29.0663 189.764 27.4063V21.7663H191.924V27.1863C191.924 28.1863 192.124 28.9463 192.524 29.4663C192.924 29.9863 193.504 30.2463 194.304 30.2463C195.124 30.2463 195.764 29.9463 196.244 29.3463C196.704 28.7463 196.944 27.9063 196.944 26.8463V21.7663H199.104Z" fill="white"/>
<path d="M201.951 23.6663H200.171V21.7663H201.951V18.9063H204.131V21.7663H206.591V23.6663H204.131V29.0063C204.131 29.4063 204.211 29.7063 204.371 29.8663C204.531 30.0263 204.791 30.1063 205.191 30.1063H206.831V32.0063H204.751C203.771 32.0063 203.051 31.7863 202.611 31.3263C202.171 30.8863 201.951 30.1863 201.951 29.2263V23.6663Z" fill="white"/>
<path d="M208.015 24.1463C208.435 23.3463 209.015 22.7463 209.775 22.3063C210.535 21.8663 211.395 21.6463 212.375 21.6463C213.355 21.6463 214.215 21.8463 214.975 22.2463C215.735 22.6463 216.315 23.2263 216.755 23.9463C217.195 24.6863 217.415 25.5463 217.435 26.5263C217.435 26.8063 217.415 27.0663 217.375 27.3463H209.655V27.4663C209.695 28.3663 209.975 29.0663 210.495 29.5863C210.995 30.1063 211.675 30.3663 212.515 30.3663C213.175 30.3663 213.735 30.2263 214.195 29.9063C214.635 29.5863 214.935 29.1463 215.095 28.5663H217.255C217.055 29.6063 216.555 30.4663 215.735 31.1263C214.915 31.8063 213.895 32.1263 212.675 32.1263C211.595 32.1263 210.675 31.9263 209.875 31.4863C209.075 31.0463 208.475 30.4463 208.035 29.6463C207.595 28.8663 207.395 27.9463 207.395 26.9063C207.395 25.8663 207.595 24.9463 208.015 24.1463ZM215.235 25.7663C215.135 25.0263 214.835 24.4463 214.335 24.0263C213.835 23.6063 213.215 23.3863 212.455 23.3863C211.735 23.3863 211.135 23.6063 210.615 24.0463C210.095 24.4863 209.815 25.0463 209.735 25.7663H215.235Z" fill="white"/>
</svg>
